<?xml version="1.0" encoding="utf-8"?>
<svg xmlns="http://www.w3.org/2000/svg" xmlns:xlink="http://www.w3.org/1999/xlink" width="600" height="400" viewBox="0 0 2400 1600">
<defs>
  <clipPath id="clip800">
    <rect x="0" y="0" width="2400" height="1600"/>
  </clipPath>
</defs>
<path clip-path="url(#clip800)" d="M0 1600 L2400 1600 L2400 0 L0 0  Z" fill="#ffffff" fill-rule="evenodd" fill-opacity="1"/>
<defs>
  <clipPath id="clip801">
    <rect x="480" y="0" width="1681" height="1600"/>
  </clipPath>
</defs>
<path clip-path="url(#clip800)" d="M219.38 1423.18 L2352.76 1423.18 L2352.76 47.2441 L219.38 47.2441  Z" fill="#ffffff" fill-rule="evenodd" fill-opacity="1"/>
<defs>
  <clipPath id="clip802">
    <rect x="219" y="47" width="2134" height="1377"/>
  </clipPath>
</defs>
<polyline clip-path="url(#clip802)" style="stroke:#000000; stroke-linecap:round; stroke-linejoin:round; stroke-width:2; stroke-opacity:0.1; fill:none" points="279.759,1423.18 279.759,47.2441 "/>
<polyline clip-path="url(#clip802)" style="stroke:#000000; stroke-linecap:round; stroke-linejoin:round; stroke-width:2; stroke-opacity:0.1; fill:none" points="950.632,1423.18 950.632,47.2441 "/>
<polyline clip-path="url(#clip802)" style="stroke:#000000; stroke-linecap:round; stroke-linejoin:round; stroke-width:2; stroke-opacity:0.1; fill:none" points="1621.5,1423.18 1621.5,47.2441 "/>
<polyline clip-path="url(#clip802)" style="stroke:#000000; stroke-linecap:round; stroke-linejoin:round; stroke-width:2; stroke-opacity:0.1; fill:none" points="2292.38,1423.18 2292.38,47.2441 "/>
<polyline clip-path="url(#clip800)" style="stroke:#000000; stroke-linecap:round; stroke-linejoin:round; stroke-width:4; stroke-opacity:1; fill:none" points="219.38,1423.18 2352.76,1423.18 "/>
<polyline clip-path="url(#clip800)" style="stroke:#000000; stroke-linecap:round; stroke-linejoin:round; stroke-width:4; stroke-opacity:1; fill:none" points="279.759,1423.18 279.759,1404.28 "/>
<polyline clip-path="url(#clip800)" style="stroke:#000000; stroke-linecap:round; stroke-linejoin:round; stroke-width:4; stroke-opacity:1; fill:none" points="950.632,1423.18 950.632,1404.28 "/>
<polyline clip-path="url(#clip800)" style="stroke:#000000; stroke-linecap:round; stroke-linejoin:round; stroke-width:4; stroke-opacity:1; fill:none" points="1621.5,1423.18 1621.5,1404.28 "/>
<polyline clip-path="url(#clip800)" style="stroke:#000000; stroke-linecap:round; stroke-linejoin:round; stroke-width:4; stroke-opacity:1; fill:none" points="2292.38,1423.18 2292.38,1404.28 "/>
<path clip-path="url(#clip800)" d="M279.759 1454.1 Q276.148 1454.1 274.319 1457.66 Q272.513 1461.2 272.513 1468.33 Q272.513 1475.44 274.319 1479.01 Q276.148 1482.55 279.759 1482.55 Q283.393 1482.55 285.199 1479.01 Q287.027 1475.44 287.027 1468.33 Q287.027 1461.2 285.199 1457.66 Q283.393 1454.1 279.759 1454.1 M279.759 1450.39 Q285.569 1450.39 288.624 1455 Q291.703 1459.58 291.703 1468.33 Q291.703 1477.06 288.624 1481.67 Q285.569 1486.25 279.759 1486.25 Q273.949 1486.25 270.87 1481.67 Q267.814 1477.06 267.814 1468.33 Q267.814 1459.58 270.87 1455 Q273.949 1450.39 279.759 1450.39 Z" fill="#000000" fill-rule="nonzero" fill-opacity="1" /><path clip-path="url(#clip800)" d="M940.909 1451.02 L959.266 1451.02 L959.266 1454.96 L945.192 1454.96 L945.192 1463.43 Q946.21 1463.08 947.229 1462.92 Q948.247 1462.73 949.266 1462.73 Q955.053 1462.73 958.432 1465.9 Q961.812 1469.08 961.812 1474.49 Q961.812 1480.07 958.34 1483.17 Q954.868 1486.25 948.548 1486.25 Q946.372 1486.25 944.104 1485.88 Q941.858 1485.51 939.451 1484.77 L939.451 1480.07 Q941.534 1481.2 943.757 1481.76 Q945.979 1482.32 948.456 1482.32 Q952.46 1482.32 954.798 1480.21 Q957.136 1478.1 957.136 1474.49 Q957.136 1470.88 954.798 1468.77 Q952.46 1466.67 948.456 1466.67 Q946.581 1466.67 944.706 1467.08 Q942.854 1467.5 940.909 1468.38 L940.909 1451.02 Z" fill="#000000" fill-rule="nonzero" fill-opacity="1" /><path clip-path="url(#clip800)" d="M1596.19 1481.64 L1603.83 1481.64 L1603.83 1455.28 L1595.52 1456.95 L1595.52 1452.69 L1603.78 1451.02 L1608.46 1451.02 L1608.46 1481.64 L1616.1 1481.64 L1616.1 1485.58 L1596.19 1485.58 L1596.19 1481.64 Z" fill="#000000" fill-rule="nonzero" fill-opacity="1" /><path clip-path="url(#clip800)" d="M1635.54 1454.1 Q1631.93 1454.1 1630.1 1457.66 Q1628.3 1461.2 1628.3 1468.33 Q1628.3 1475.44 1630.1 1479.01 Q1631.93 1482.55 1635.54 1482.55 Q1639.18 1482.55 1640.98 1479.01 Q1642.81 1475.44 1642.81 1468.33 Q1642.81 1461.2 1640.98 1457.66 Q1639.18 1454.1 1635.54 1454.1 M1635.54 1450.39 Q1641.35 1450.39 1644.41 1455 Q1647.49 1459.58 1647.49 1468.33 Q1647.49 1477.06 1644.41 1481.67 Q1641.35 1486.25 1635.54 1486.25 Q1629.73 1486.25 1626.65 1481.67 Q1623.6 1477.06 1623.6 1468.33 Q1623.6 1459.58 1626.65 1455 Q1629.73 1450.39 1635.54 1450.39 Z" fill="#000000" fill-rule="nonzero" fill-opacity="1" /><path clip-path="url(#clip800)" d="M2267.56 1481.64 L2275.2 1481.64 L2275.2 1455.28 L2266.89 1456.95 L2266.89 1452.69 L2275.16 1451.02 L2279.83 1451.02 L2279.83 1481.64 L2287.47 1481.64 L2287.47 1485.58 L2267.56 1485.58 L2267.56 1481.64 Z" fill="#000000" fill-rule="nonzero" fill-opacity="1" /><path clip-path="url(#clip800)" d="M2296.96 1451.02 L2315.32 1451.02 L2315.32 1454.96 L2301.24 1454.96 L2301.24 1463.43 Q2302.26 1463.08 2303.28 1462.92 Q2304.3 1462.73 2305.32 1462.73 Q2311.1 1462.73 2314.48 1465.9 Q2317.86 1469.08 2317.86 1474.49 Q2317.86 1480.07 2314.39 1483.17 Q2310.92 1486.25 2304.6 1486.25 Q2302.42 1486.25 2300.16 1485.88 Q2297.91 1485.51 2295.5 1484.77 L2295.5 1480.07 Q2297.59 1481.2 2299.81 1481.76 Q2302.03 1482.32 2304.51 1482.32 Q2308.51 1482.32 2310.85 1480.21 Q2313.19 1478.1 2313.19 1474.49 Q2313.19 1470.88 2310.85 1468.77 Q2308.51 1466.67 2304.51 1466.67 Q2302.63 1466.67 2300.76 1467.08 Q2298.91 1467.5 2296.96 1468.38 L2296.96 1451.02 Z" fill="#000000" fill-rule="nonzero" fill-opacity="1" /><path clip-path="url(#clip800)" d="M1189.9 1522.27 L1189.9 1532.4 L1201.96 1532.4 L1201.96 1536.95 L1189.9 1536.95 L1189.9 1556.3 Q1189.9 1560.66 1191.08 1561.9 Q1192.29 1563.14 1195.95 1563.14 L1201.96 1563.14 L1201.96 1568.04 L1195.95 1568.04 Q1189.17 1568.04 1186.59 1565.53 Q1184.01 1562.98 1184.01 1556.3 L1184.01 1536.95 L1179.71 1536.95 L1179.71 1532.4 L1184.01 1532.4 L1184.01 1522.27 L1189.9 1522.27 Z" fill="#000000" fill-rule="nonzero" fill-opacity="1" /><path clip-path="url(#clip800)" d="M1229.84 1518.52 L1243.34 1518.52 L1243.34 1523.07 L1235.7 1523.07 L1235.7 1572.09 L1243.34 1572.09 L1243.34 1576.64 L1229.84 1576.64 L1229.84 1518.52 Z" fill="#000000" fill-rule="nonzero" fill-opacity="1" /><path clip-path="url(#clip800)" d="M1283.57 1539.24 Q1285.77 1535.29 1288.82 1533.41 Q1291.88 1531.54 1296.01 1531.54 Q1301.58 1531.54 1304.61 1535.45 Q1307.63 1539.33 1307.63 1546.53 L1307.63 1568.04 L1301.74 1568.04 L1301.74 1546.72 Q1301.74 1541.59 1299.93 1539.11 Q1298.12 1536.63 1294.39 1536.63 Q1289.84 1536.63 1287.2 1539.65 Q1284.56 1542.68 1284.56 1547.9 L1284.56 1568.04 L1278.67 1568.04 L1278.67 1546.72 Q1278.67 1541.56 1276.85 1539.11 Q1275.04 1536.63 1271.25 1536.63 Q1266.76 1536.63 1264.12 1539.68 Q1261.48 1542.71 1261.48 1547.9 L1261.48 1568.04 L1255.59 1568.04 L1255.59 1532.4 L1261.48 1532.4 L1261.48 1537.93 Q1263.49 1534.66 1266.29 1533.1 Q1269.09 1531.54 1272.94 1531.54 Q1276.82 1531.54 1279.53 1533.51 Q1282.26 1535.48 1283.57 1539.24 Z" fill="#000000" fill-rule="nonzero" fill-opacity="1" /><path clip-path="url(#clip800)" d="M1319.31 1532.4 L1325.17 1532.4 L1325.17 1568.04 L1319.31 1568.04 L1319.31 1532.4 M1319.31 1518.52 L1325.17 1518.52 L1325.17 1525.93 L1319.31 1525.93 L1319.31 1518.52 Z" fill="#000000" fill-rule="nonzero" fill-opacity="1" /><path clip-path="url(#clip800)" d="M1367.06 1546.53 L1367.06 1568.04 L1361.2 1568.04 L1361.2 1546.72 Q1361.2 1541.66 1359.23 1539.14 Q1357.25 1536.63 1353.31 1536.63 Q1348.56 1536.63 1345.83 1539.65 Q1343.09 1542.68 1343.09 1547.9 L1343.09 1568.04 L1337.2 1568.04 L1337.2 1532.4 L1343.09 1532.4 L1343.09 1537.93 Q1345.19 1534.72 1348.02 1533.13 Q1350.89 1531.54 1354.61 1531.54 Q1360.75 1531.54 1363.9 1535.36 Q1367.06 1539.14 1367.06 1546.53 Z" fill="#000000" fill-rule="nonzero" fill-opacity="1" /><path clip-path="url(#clip800)" d="M1392.42 1518.52 L1392.42 1576.64 L1378.93 1576.64 L1378.93 1572.09 L1386.53 1572.09 L1386.53 1523.07 L1378.93 1523.07 L1378.93 1518.52 L1392.42 1518.52 Z" fill="#000000" fill-rule="nonzero" fill-opacity="1" /><polyline clip-path="url(#clip802)" style="stroke:#000000; stroke-linecap:round; stroke-linejoin:round; stroke-width:2; stroke-opacity:0.1; fill:none" points="219.38,1384.24 2352.76,1384.24 "/>
<polyline clip-path="url(#clip802)" style="stroke:#000000; stroke-linecap:round; stroke-linejoin:round; stroke-width:2; stroke-opacity:0.1; fill:none" points="219.38,1059.73 2352.76,1059.73 "/>
<polyline clip-path="url(#clip802)" style="stroke:#000000; stroke-linecap:round; stroke-linejoin:round; stroke-width:2; stroke-opacity:0.1; fill:none" points="219.38,735.212 2352.76,735.212 "/>
<polyline clip-path="url(#clip802)" style="stroke:#000000; stroke-linecap:round; stroke-linejoin:round; stroke-width:2; stroke-opacity:0.1; fill:none" points="219.38,410.699 2352.76,410.699 "/>
<polyline clip-path="url(#clip802)" style="stroke:#000000; stroke-linecap:round; stroke-linejoin:round; stroke-width:2; stroke-opacity:0.1; fill:none" points="219.38,86.1857 2352.76,86.1857 "/>
<polyline clip-path="url(#clip800)" style="stroke:#000000; stroke-linecap:round; stroke-linejoin:round; stroke-width:4; stroke-opacity:1; fill:none" points="219.38,1423.18 219.38,47.2441 "/>
<polyline clip-path="url(#clip800)" style="stroke:#000000; stroke-linecap:round; stroke-linejoin:round; stroke-width:4; stroke-opacity:1; fill:none" points="219.38,1384.24 238.278,1384.24 "/>
<polyline clip-path="url(#clip800)" style="stroke:#000000; stroke-linecap:round; stroke-linejoin:round; stroke-width:4; stroke-opacity:1; fill:none" points="219.38,1059.73 238.278,1059.73 "/>
<polyline clip-path="url(#clip800)" style="stroke:#000000; stroke-linecap:round; stroke-linejoin:round; stroke-width:4; stroke-opacity:1; fill:none" points="219.38,735.212 238.278,735.212 "/>
<polyline clip-path="url(#clip800)" style="stroke:#000000; stroke-linecap:round; stroke-linejoin:round; stroke-width:4; stroke-opacity:1; fill:none" points="219.38,410.699 238.278,410.699 "/>
<polyline clip-path="url(#clip800)" style="stroke:#000000; stroke-linecap:round; stroke-linejoin:round; stroke-width:4; stroke-opacity:1; fill:none" points="219.38,86.1857 238.278,86.1857 "/>
<path clip-path="url(#clip800)" d="M126.205 1370.04 Q122.593 1370.04 120.765 1373.6 Q118.959 1377.14 118.959 1384.27 Q118.959 1391.38 120.765 1394.94 Q122.593 1398.49 126.205 1398.49 Q129.839 1398.49 131.644 1394.94 Q133.473 1391.38 133.473 1384.27 Q133.473 1377.14 131.644 1373.6 Q129.839 1370.04 126.205 1370.04 M126.205 1366.33 Q132.015 1366.33 135.07 1370.94 Q138.149 1375.52 138.149 1384.27 Q138.149 1393 135.07 1397.61 Q132.015 1402.19 126.205 1402.19 Q120.394 1402.19 117.316 1397.61 Q114.26 1393 114.26 1384.27 Q114.26 1375.52 117.316 1370.94 Q120.394 1366.33 126.205 1366.33 Z" fill="#000000" fill-rule="nonzero" fill-opacity="1" /><path clip-path="url(#clip800)" d="M146.366 1395.64 L151.251 1395.64 L151.251 1401.52 L146.366 1401.52 L146.366 1395.64 Z" fill="#000000" fill-rule="nonzero" fill-opacity="1" /><path clip-path="url(#clip800)" d="M171.436 1370.04 Q167.825 1370.04 165.996 1373.6 Q164.19 1377.14 164.19 1384.27 Q164.19 1391.38 165.996 1394.94 Q167.825 1398.49 171.436 1398.49 Q175.07 1398.49 176.876 1394.94 Q178.704 1391.38 178.704 1384.27 Q178.704 1377.14 176.876 1373.6 Q175.07 1370.04 171.436 1370.04 M171.436 1366.33 Q177.246 1366.33 180.301 1370.94 Q183.38 1375.52 183.38 1384.27 Q183.38 1393 180.301 1397.61 Q177.246 1402.19 171.436 1402.19 Q165.626 1402.19 162.547 1397.61 Q159.491 1393 159.491 1384.27 Q159.491 1375.52 162.547 1370.94 Q165.626 1366.33 171.436 1366.33 Z" fill="#000000" fill-rule="nonzero" fill-opacity="1" /><path clip-path="url(#clip800)" d="M127.2 1045.52 Q123.589 1045.52 121.76 1049.09 Q119.955 1052.63 119.955 1059.76 Q119.955 1066.87 121.76 1070.43 Q123.589 1073.97 127.2 1073.97 Q130.834 1073.97 132.64 1070.43 Q134.468 1066.87 134.468 1059.76 Q134.468 1052.63 132.64 1049.09 Q130.834 1045.52 127.2 1045.52 M127.2 1041.82 Q133.01 1041.82 136.066 1046.43 Q139.144 1051.01 139.144 1059.76 Q139.144 1068.49 136.066 1073.09 Q133.01 1077.68 127.2 1077.68 Q121.39 1077.68 118.311 1073.09 Q115.256 1068.49 115.256 1059.76 Q115.256 1051.01 118.311 1046.43 Q121.39 1041.82 127.2 1041.82 Z" fill="#000000" fill-rule="nonzero" fill-opacity="1" /><path clip-path="url(#clip800)" d="M147.362 1071.13 L152.246 1071.13 L152.246 1077.01 L147.362 1077.01 L147.362 1071.13 Z" fill="#000000" fill-rule="nonzero" fill-opacity="1" /><path clip-path="url(#clip800)" d="M162.477 1042.45 L180.834 1042.45 L180.834 1046.38 L166.76 1046.38 L166.76 1054.85 Q167.778 1054.51 168.797 1054.34 Q169.815 1054.16 170.834 1054.16 Q176.621 1054.16 180.001 1057.33 Q183.38 1060.5 183.38 1065.92 Q183.38 1071.5 179.908 1074.6 Q176.436 1077.68 170.116 1077.68 Q167.94 1077.68 165.672 1077.31 Q163.427 1076.94 161.019 1076.19 L161.019 1071.5 Q163.102 1072.63 165.325 1073.19 Q167.547 1073.74 170.024 1073.74 Q174.028 1073.74 176.366 1071.63 Q178.704 1069.53 178.704 1065.92 Q178.704 1062.31 176.366 1060.2 Q174.028 1058.09 170.024 1058.09 Q168.149 1058.09 166.274 1058.51 Q164.422 1058.93 162.477 1059.81 L162.477 1042.45 Z" fill="#000000" fill-rule="nonzero" fill-opacity="1" /><path clip-path="url(#clip800)" d="M117.015 748.557 L124.654 748.557 L124.654 722.191 L116.343 723.858 L116.343 719.599 L124.607 717.932 L129.283 717.932 L129.283 748.557 L136.922 748.557 L136.922 752.492 L117.015 752.492 L117.015 748.557 Z" fill="#000000" fill-rule="nonzero" fill-opacity="1" /><path clip-path="url(#clip800)" d="M146.366 746.612 L151.251 746.612 L151.251 752.492 L146.366 752.492 L146.366 746.612 Z" fill="#000000" fill-rule="nonzero" fill-opacity="1" /><path clip-path="url(#clip800)" d="M171.436 721.011 Q167.825 721.011 165.996 724.575 Q164.19 728.117 164.19 735.247 Q164.19 742.353 165.996 745.918 Q167.825 749.46 171.436 749.46 Q175.07 749.46 176.876 745.918 Q178.704 742.353 178.704 735.247 Q178.704 728.117 176.876 724.575 Q175.07 721.011 171.436 721.011 M171.436 717.307 Q177.246 717.307 180.301 721.913 Q183.38 726.497 183.38 735.247 Q183.38 743.973 180.301 748.58 Q177.246 753.163 171.436 753.163 Q165.626 753.163 162.547 748.58 Q159.491 743.973 159.491 735.247 Q159.491 726.497 162.547 721.913 Q165.626 717.307 171.436 717.307 Z" fill="#000000" fill-rule="nonzero" fill-opacity="1" /><path clip-path="url(#clip800)" d="M118.01 424.044 L125.649 424.044 L125.649 397.678 L117.339 399.345 L117.339 395.085 L125.603 393.419 L130.279 393.419 L130.279 424.044 L137.917 424.044 L137.917 427.979 L118.01 427.979 L118.01 424.044 Z" fill="#000000" fill-rule="nonzero" fill-opacity="1" /><path clip-path="url(#clip800)" d="M147.362 422.099 L152.246 422.099 L152.246 427.979 L147.362 427.979 L147.362 422.099 Z" fill="#000000" fill-rule="nonzero" fill-opacity="1" /><path clip-path="url(#clip800)" d="M162.477 393.419 L180.834 393.419 L180.834 397.354 L166.76 397.354 L166.76 405.826 Q167.778 405.479 168.797 405.317 Q169.815 405.132 170.834 405.132 Q176.621 405.132 180.001 408.303 Q183.38 411.474 183.38 416.891 Q183.38 422.47 179.908 425.571 Q176.436 428.65 170.116 428.65 Q167.94 428.65 165.672 428.28 Q163.427 427.909 161.019 427.169 L161.019 422.47 Q163.102 423.604 165.325 424.159 Q167.547 424.715 170.024 424.715 Q174.028 424.715 176.366 422.608 Q178.704 420.502 178.704 416.891 Q178.704 413.28 176.366 411.173 Q174.028 409.067 170.024 409.067 Q168.149 409.067 166.274 409.484 Q164.422 409.9 162.477 410.78 L162.477 393.419 Z" fill="#000000" fill-rule="nonzero" fill-opacity="1" /><path clip-path="url(#clip800)" d="M120.232 99.5305 L136.552 99.5305 L136.552 103.466 L114.607 103.466 L114.607 99.5305 Q117.269 96.7759 121.853 92.1463 Q126.459 87.4935 127.64 86.151 Q129.885 83.6278 130.765 81.8917 Q131.667 80.1325 131.667 78.4427 Q131.667 75.688 129.723 73.9519 Q127.802 72.2158 124.7 72.2158 Q122.501 72.2158 120.047 72.9797 Q117.617 73.7436 114.839 75.2945 L114.839 70.5723 Q117.663 69.4381 120.117 68.8594 Q122.57 68.2807 124.607 68.2807 Q129.978 68.2807 133.172 70.9658 Q136.367 73.651 136.367 78.1417 Q136.367 80.2714 135.556 82.1926 Q134.769 84.0908 132.663 86.6834 Q132.084 87.3546 128.982 90.5722 Q125.88 93.7667 120.232 99.5305 Z" fill="#000000" fill-rule="nonzero" fill-opacity="1" /><path clip-path="url(#clip800)" d="M146.366 97.5861 L151.251 97.5861 L151.251 103.466 L146.366 103.466 L146.366 97.5861 Z" fill="#000000" fill-rule="nonzero" fill-opacity="1" /><path clip-path="url(#clip800)" d="M171.436 71.9844 Q167.825 71.9844 165.996 75.5492 Q164.19 79.0908 164.19 86.2204 Q164.19 93.3268 165.996 96.8916 Q167.825 100.433 171.436 100.433 Q175.07 100.433 176.876 96.8916 Q178.704 93.3268 178.704 86.2204 Q178.704 79.0908 176.876 75.5492 Q175.07 71.9844 171.436 71.9844 M171.436 68.2807 Q177.246 68.2807 180.301 72.8871 Q183.38 77.4704 183.38 86.2204 Q183.38 94.9472 180.301 99.5537 Q177.246 104.137 171.436 104.137 Q165.626 104.137 162.547 99.5537 Q159.491 94.9472 159.491 86.2204 Q159.491 77.4704 162.547 72.8871 Q165.626 68.2807 171.436 68.2807 Z" fill="#000000" fill-rule="nonzero" fill-opacity="1" /><path clip-path="url(#clip800)" d="M49.9359 1328.15 L28.3562 1328.15 L28.3562 1322.29 L49.7131 1322.29 Q54.7739 1322.29 57.3202 1320.32 Q59.8346 1318.34 59.8346 1314.4 Q59.8346 1309.65 56.8109 1306.92 Q53.7872 1304.15 48.5673 1304.15 L28.3562 1304.15 L28.3562 1298.29 L64.0042 1298.29 L64.0042 1304.15 L58.5296 1304.15 Q61.7762 1306.28 63.3676 1309.11 Q64.9272 1311.91 64.9272 1315.64 Q64.9272 1321.78 61.1078 1324.96 Q57.2883 1328.15 49.9359 1328.15 M27.4968 1313.41 L27.4968 1313.41 Z" fill="#000000" fill-rule="nonzero" fill-opacity="1" /><path clip-path="url(#clip800)" d="M58.657 1280.56 L77.5631 1280.56 L77.5631 1286.45 L28.3562 1286.45 L28.3562 1280.56 L33.7671 1280.56 Q30.5842 1278.72 29.0564 1275.92 Q27.4968 1273.08 27.4968 1269.17 Q27.4968 1262.67 32.6531 1258.63 Q37.8093 1254.56 46.212 1254.56 Q54.6147 1254.56 59.771 1258.63 Q64.9272 1262.67 64.9272 1269.17 Q64.9272 1273.08 63.3994 1275.92 Q61.8398 1278.72 58.657 1280.56 M46.212 1260.64 Q39.7508 1260.64 36.0905 1263.31 Q32.3984 1265.95 32.3984 1270.6 Q32.3984 1275.25 36.0905 1277.92 Q39.7508 1280.56 46.212 1280.56 Q52.6732 1280.56 56.3653 1277.92 Q60.0256 1275.25 60.0256 1270.6 Q60.0256 1265.95 56.3653 1263.31 Q52.6732 1260.64 46.212 1260.64 Z" fill="#000000" fill-rule="nonzero" fill-opacity="1" /><path clip-path="url(#clip800)" d="M33.7671 1221.39 L14.479 1221.39 L14.479 1215.54 L64.0042 1215.54 L64.0042 1221.39 L58.657 1221.39 Q61.8398 1223.24 63.3994 1226.07 Q64.9272 1228.87 64.9272 1232.82 Q64.9272 1239.28 59.771 1243.35 Q54.6147 1247.4 46.212 1247.4 Q37.8093 1247.4 32.6531 1243.35 Q27.4968 1239.28 27.4968 1232.82 Q27.4968 1228.87 29.0564 1226.07 Q30.5842 1223.24 33.7671 1221.39 M46.212 1241.35 Q52.6732 1241.35 56.3653 1238.71 Q60.0256 1236.03 60.0256 1231.39 Q60.0256 1226.74 56.3653 1224.07 Q52.6732 1221.39 46.212 1221.39 Q39.7508 1221.39 36.0905 1224.07 Q32.3984 1226.74 32.3984 1231.39 Q32.3984 1236.03 36.0905 1238.71 Q39.7508 1241.35 46.212 1241.35 Z" fill="#000000" fill-rule="nonzero" fill-opacity="1" /><path clip-path="url(#clip800)" d="M33.8307 1182.82 Q33.2578 1183.8 33.0032 1184.98 Q32.7167 1186.13 32.7167 1187.53 Q32.7167 1192.49 35.9632 1195.17 Q39.1779 1197.81 45.2253 1197.81 L64.0042 1197.81 L64.0042 1203.7 L28.3562 1203.7 L28.3562 1197.81 L33.8944 1197.81 Q30.6479 1195.96 29.0883 1193 Q27.4968 1190.04 27.4968 1185.81 Q27.4968 1185.2 27.5923 1184.47 Q27.656 1183.74 27.8151 1182.85 L33.8307 1182.82 Z" fill="#000000" fill-rule="nonzero" fill-opacity="1" /><path clip-path="url(#clip800)" d="M46.0847 1160.47 Q46.0847 1167.57 47.7079 1170.31 Q49.3312 1173.05 53.2461 1173.05 Q56.3653 1173.05 58.2114 1171.01 Q60.0256 1168.94 60.0256 1165.41 Q60.0256 1160.54 56.5881 1157.61 Q53.1188 1154.65 47.3897 1154.65 L46.0847 1154.65 L46.0847 1160.47 M43.6657 1148.79 L64.0042 1148.79 L64.0042 1154.65 L58.5933 1154.65 Q61.8398 1156.65 63.3994 1159.65 Q64.9272 1162.64 64.9272 1166.97 Q64.9272 1172.44 61.8716 1175.69 Q58.7843 1178.9 53.6281 1178.9 Q47.6125 1178.9 44.5569 1174.89 Q41.5014 1170.85 41.5014 1162.86 L41.5014 1154.65 L40.9285 1154.65 Q36.8862 1154.65 34.6901 1157.32 Q32.4621 1159.96 32.4621 1164.77 Q32.4621 1167.83 33.1941 1170.72 Q33.9262 1173.62 35.3903 1176.29 L29.9795 1176.29 Q28.7381 1173.08 28.1334 1170.05 Q27.4968 1167.03 27.4968 1164.17 Q27.4968 1156.43 31.5072 1152.61 Q35.5176 1148.79 43.6657 1148.79 Z" fill="#000000" fill-rule="nonzero" fill-opacity="1" /><path clip-path="url(#clip800)" d="M14.479 1118.68 L19.3487 1118.68 L19.3487 1124.28 Q19.3487 1127.43 20.6219 1128.68 Q21.895 1129.89 25.2052 1129.89 L28.3562 1129.89 L28.3562 1120.24 L32.9077 1120.24 L32.9077 1129.89 L64.0042 1129.89 L64.0042 1135.77 L32.9077 1135.77 L32.9077 1141.38 L28.3562 1141.38 L28.3562 1135.77 L25.8736 1135.77 Q19.9216 1135.77 17.2162 1133 Q14.479 1130.24 14.479 1124.22 L14.479 1118.68 Z" fill="#000000" fill-rule="nonzero" fill-opacity="1" /><path clip-path="url(#clip800)" d="M18.2347 1109.13 L28.3562 1109.13 L28.3562 1097.07 L32.9077 1097.07 L32.9077 1109.13 L52.2594 1109.13 Q56.6199 1109.13 57.8613 1107.96 Q59.1026 1106.75 59.1026 1103.09 L59.1026 1097.07 L64.0042 1097.07 L64.0042 1103.09 Q64.0042 1109.87 61.4897 1112.44 Q58.9434 1115.02 52.2594 1115.02 L32.9077 1115.02 L32.9077 1119.32 L28.3562 1119.32 L28.3562 1115.02 L18.2347 1115.02 L18.2347 1109.13 Z" fill="#000000" fill-rule="nonzero" fill-opacity="1" /><path clip-path="url(#clip800)" d="M35.1993 1040.89 Q31.2526 1038.7 29.3747 1035.64 Q27.4968 1032.59 27.4968 1028.45 Q27.4968 1022.88 31.4117 1019.85 Q35.2948 1016.83 42.4881 1016.83 L64.0042 1016.83 L64.0042 1022.72 L42.679 1022.72 Q37.5546 1022.72 35.072 1024.53 Q32.5894 1026.35 32.5894 1030.07 Q32.5894 1034.62 35.6131 1037.26 Q38.6368 1039.91 43.8567 1039.91 L64.0042 1039.91 L64.0042 1045.79 L42.679 1045.79 Q37.5228 1045.79 35.072 1047.61 Q32.5894 1049.42 32.5894 1053.21 Q32.5894 1057.7 35.6449 1060.34 Q38.6686 1062.98 43.8567 1062.98 L64.0042 1062.98 L64.0042 1068.87 L28.3562 1068.87 L28.3562 1062.98 L33.8944 1062.98 Q30.616 1060.98 29.0564 1058.18 Q27.4968 1055.38 27.4968 1051.52 Q27.4968 1047.64 29.4702 1044.94 Q31.4436 1042.2 35.1993 1040.89 Z" fill="#000000" fill-rule="nonzero" fill-opacity="1" /><path clip-path="url(#clip800)" d="M32.4621 991.336 Q32.4621 996.047 36.1542 998.784 Q39.8145 1001.52 46.212 1001.52 Q52.6095 1001.52 56.3017 998.816 Q59.9619 996.079 59.9619 991.336 Q59.9619 986.657 56.2698 983.92 Q52.5777 981.183 46.212 981.183 Q39.8781 981.183 36.186 983.92 Q32.4621 986.657 32.4621 991.336 M27.4968 991.336 Q27.4968 983.697 32.4621 979.337 Q37.4273 974.976 46.212 974.976 Q54.9649 974.976 59.9619 979.337 Q64.9272 983.697 64.9272 991.336 Q64.9272 999.007 59.9619 1003.37 Q54.9649 1007.7 46.212 1007.7 Q37.4273 1007.7 32.4621 1003.37 Q27.4968 999.007 27.4968 991.336 Z" fill="#000000" fill-rule="nonzero" fill-opacity="1" /><path clip-path="url(#clip800)" d="M35.1993 937.514 Q31.2526 935.318 29.3747 932.262 Q27.4968 929.207 27.4968 925.069 Q27.4968 919.499 31.4117 916.475 Q35.2948 913.452 42.4881 913.452 L64.0042 913.452 L64.0042 919.34 L42.679 919.34 Q37.5546 919.34 35.072 921.154 Q32.5894 922.968 32.5894 926.692 Q32.5894 931.244 35.6131 933.886 Q38.6368 936.527 43.8567 936.527 L64.0042 936.527 L64.0042 942.416 L42.679 942.416 Q37.5228 942.416 35.072 944.23 Q32.5894 946.044 32.5894 949.832 Q32.5894 954.32 35.6449 956.961 Q38.6686 959.603 43.8567 959.603 L64.0042 959.603 L64.0042 965.491 L28.3562 965.491 L28.3562 959.603 L33.8944 959.603 Q30.616 957.598 29.0564 954.797 Q27.4968 951.996 27.4968 948.145 Q27.4968 944.262 29.4702 941.556 Q31.4436 938.819 35.1993 937.514 Z" fill="#000000" fill-rule="nonzero" fill-opacity="1" /><path clip-path="url(#clip800)" d="M44.7161 871.279 L47.5806 871.279 L47.5806 898.206 Q53.6281 897.824 56.8109 894.577 Q59.9619 891.299 59.9619 885.474 Q59.9619 882.101 59.1344 878.95 Q58.3069 875.767 56.6518 872.648 L62.1899 872.648 Q63.5267 875.799 64.227 879.109 Q64.9272 882.419 64.9272 885.825 Q64.9272 894.355 59.9619 899.352 Q54.9967 904.317 46.5303 904.317 Q37.7774 904.317 32.6531 899.606 Q27.4968 894.864 27.4968 886.843 Q27.4968 879.65 32.1438 875.48 Q36.7589 871.279 44.7161 871.279 M42.9973 877.135 Q38.1912 877.199 35.3266 879.841 Q32.4621 882.451 32.4621 886.779 Q32.4621 891.681 35.2312 894.641 Q38.0002 897.569 43.0292 898.015 L42.9973 877.135 Z" fill="#000000" fill-rule="nonzero" fill-opacity="1" /><path clip-path="url(#clip800)" d="M42.4881 832.034 L64.0042 832.034 L64.0042 837.891 L42.679 837.891 Q37.6183 837.891 35.1038 839.864 Q32.5894 841.838 32.5894 845.784 Q32.5894 850.527 35.6131 853.264 Q38.6368 856.001 43.8567 856.001 L64.0042 856.001 L64.0042 861.89 L28.3562 861.89 L28.3562 856.001 L33.8944 856.001 Q30.6797 853.901 29.0883 851.068 Q27.4968 848.203 27.4968 844.479 Q27.4968 838.336 31.3163 835.185 Q35.1038 832.034 42.4881 832.034 Z" fill="#000000" fill-rule="nonzero" fill-opacity="1" /><path clip-path="url(#clip800)" d="M18.2347 814.561 L28.3562 814.561 L28.3562 802.497 L32.9077 802.497 L32.9077 814.561 L52.2594 814.561 Q56.6199 814.561 57.8613 813.383 Q59.1026 812.173 59.1026 808.513 L59.1026 802.497 L64.0042 802.497 L64.0042 808.513 Q64.0042 815.293 61.4897 817.871 Q58.9434 820.449 52.2594 820.449 L32.9077 820.449 L32.9077 824.746 L28.3562 824.746 L28.3562 820.449 L18.2347 820.449 L18.2347 814.561 Z" fill="#000000" fill-rule="nonzero" fill-opacity="1" /><path clip-path="url(#clip800)" d="M49.9359 795.4 L28.3562 795.4 L28.3562 789.543 L49.7131 789.543 Q54.7739 789.543 57.3202 787.57 Q59.8346 785.597 59.8346 781.65 Q59.8346 776.907 56.8109 774.17 Q53.7872 771.401 48.5673 771.401 L28.3562 771.401 L28.3562 765.545 L64.0042 765.545 L64.0042 771.401 L58.5296 771.401 Q61.7762 773.534 63.3676 776.366 Q64.9272 779.167 64.9272 782.891 Q64.9272 789.034 61.1078 792.217 Q57.2883 795.4 49.9359 795.4 M27.4968 780.663 L27.4968 780.663 Z" fill="#000000" fill-rule="nonzero" fill-opacity="1" /><path clip-path="url(#clip800)" d="M35.1993 725.727 Q31.2526 723.531 29.3747 720.475 Q27.4968 717.42 27.4968 713.282 Q27.4968 707.712 31.4117 704.688 Q35.2948 701.665 42.4881 701.665 L64.0042 701.665 L64.0042 707.553 L42.679 707.553 Q37.5546 707.553 35.072 709.367 Q32.5894 711.181 32.5894 714.905 Q32.5894 719.457 35.6131 722.099 Q38.6368 724.74 43.8567 724.74 L64.0042 724.74 L64.0042 730.629 L42.679 730.629 Q37.5228 730.629 35.072 732.443 Q32.5894 734.257 32.5894 738.045 Q32.5894 742.533 35.6449 745.174 Q38.6686 747.816 43.8567 747.816 L64.0042 747.816 L64.0042 753.704 L28.3562 753.704 L28.3562 747.816 L33.8944 747.816 Q30.616 745.811 29.0564 743.01 Q27.4968 740.209 27.4968 736.358 Q27.4968 732.475 29.4702 729.769 Q31.4436 727.032 35.1993 725.727 Z" fill="#000000" fill-rule="nonzero" fill-opacity="1" /><path clip-path="url(#clip800)" d="M14.479 651.216 L19.3487 651.216 L19.3487 656.818 Q19.3487 659.969 20.6219 661.211 Q21.895 662.42 25.2052 662.42 L28.3562 662.42 L28.3562 652.776 L32.9077 652.776 L32.9077 662.42 L64.0042 662.42 L64.0042 668.308 L32.9077 668.308 L32.9077 673.91 L28.3562 673.91 L28.3562 668.308 L25.8736 668.308 Q19.9216 668.308 17.2162 665.539 Q14.479 662.77 14.479 656.755 L14.479 651.216 Z" fill="#000000" fill-rule="nonzero" fill-opacity="1" /><path clip-path="url(#clip800)" d="M14.479 646.315 L14.479 640.458 L64.0042 640.458 L64.0042 646.315 L14.479 646.315 Z" fill="#000000" fill-rule="nonzero" fill-opacity="1" /><path clip-path="url(#clip800)" d="M49.9359 628.809 L28.3562 628.809 L28.3562 622.953 L49.7131 622.953 Q54.7739 622.953 57.3202 620.979 Q59.8346 619.006 59.8346 615.059 Q59.8346 610.317 56.8109 607.58 Q53.7872 604.81 48.5673 604.81 L28.3562 604.81 L28.3562 598.954 L64.0042 598.954 L64.0042 604.81 L58.5296 604.81 Q61.7762 606.943 63.3676 609.776 Q64.9272 612.577 64.9272 616.301 Q64.9272 622.443 61.1078 625.626 Q57.2883 628.809 49.9359 628.809 M27.4968 614.073 L27.4968 614.073 Z" fill="#000000" fill-rule="nonzero" fill-opacity="1" /><path clip-path="url(#clip800)" d="M28.3562 557.259 L45.7028 570.149 L64.0042 556.59 L64.0042 563.497 L49.9996 573.873 L64.0042 584.249 L64.0042 591.156 L45.3526 577.311 L28.3562 589.978 L28.3562 583.072 L41.0558 573.619 L28.3562 564.165 L28.3562 557.259 Z" fill="#000000" fill-rule="nonzero" fill-opacity="1" /><path clip-path="url(#clip800)" d="M14.479 528.136 L14.479 514.64 L19.0304 514.64 L19.0304 522.279 L68.0464 522.279 L68.0464 514.64 L72.5979 514.64 L72.5979 528.136 L14.479 528.136 Z" fill="#000000" fill-rule="nonzero" fill-opacity="1" /><path clip-path="url(#clip800)" d="M35.1993 474.409 Q31.2526 472.213 29.3747 469.157 Q27.4968 466.102 27.4968 461.964 Q27.4968 456.394 31.4117 453.37 Q35.2948 450.347 42.4881 450.347 L64.0042 450.347 L64.0042 456.235 L42.679 456.235 Q37.5546 456.235 35.072 458.049 Q32.5894 459.863 32.5894 463.587 Q32.5894 468.139 35.6131 470.781 Q38.6368 473.422 43.8567 473.422 L64.0042 473.422 L64.0042 479.311 L42.679 479.311 Q37.5228 479.311 35.072 481.125 Q32.5894 482.939 32.5894 486.727 Q32.5894 491.214 35.6449 493.856 Q38.6686 496.498 43.8567 496.498 L64.0042 496.498 L64.0042 502.386 L28.3562 502.386 L28.3562 496.498 L33.8944 496.498 Q30.616 494.493 29.0564 491.692 Q27.4968 488.891 27.4968 485.04 Q27.4968 481.157 29.4702 478.451 Q31.4436 475.714 35.1993 474.409 Z" fill="#000000" fill-rule="nonzero" fill-opacity="1" /><path clip-path="url(#clip800)" d="M16.4842 428.258 L16.4842 422.847 L70.0516 439.398 L70.0516 444.808 L16.4842 428.258 Z" fill="#000000" fill-rule="nonzero" fill-opacity="1" /><path clip-path="url(#clip800)" d="M29.4065 393.978 L34.9447 393.978 Q33.6716 396.461 33.035 399.134 Q32.3984 401.808 32.3984 404.673 Q32.3984 409.033 33.7352 411.229 Q35.072 413.394 37.7456 413.394 Q39.7826 413.394 40.9603 411.834 Q42.1061 410.274 43.1565 405.564 L43.6021 403.559 Q44.9389 397.32 47.3897 394.71 Q49.8086 392.069 54.1691 392.069 Q59.1344 392.069 62.0308 396.015 Q64.9272 399.93 64.9272 406.805 Q64.9272 409.67 64.3543 412.789 Q63.8132 415.876 62.6992 419.314 L56.6518 419.314 Q58.3387 416.067 59.198 412.916 Q60.0256 409.765 60.0256 406.678 Q60.0256 402.54 58.6251 400.312 Q57.1929 398.084 54.6147 398.084 Q52.2276 398.084 50.9545 399.707 Q49.6813 401.299 48.5037 406.742 L48.0262 408.779 Q46.8804 414.221 44.5251 416.64 Q42.138 419.059 38.0002 419.059 Q32.9713 419.059 30.2341 415.494 Q27.4968 411.93 27.4968 405.373 Q27.4968 402.126 27.9743 399.262 Q28.4517 396.397 29.4065 393.978 Z" fill="#000000" fill-rule="nonzero" fill-opacity="1" /><path clip-path="url(#clip800)" d="M14.479 362.245 L14.479 356.357 L43.7294 356.357 L28.3562 338.883 L28.3562 331.403 L45.0344 350.31 L64.0042 330.608 L64.0042 338.247 L46.5939 356.357 L64.0042 356.357 L64.0042 362.245 L14.479 362.245 Z" fill="#000000" fill-rule="nonzero" fill-opacity="1" /><path clip-path="url(#clip800)" d="M45.7664 300.816 Q39.4007 300.816 35.8996 303.458 Q32.3984 306.068 32.3984 310.81 Q32.3984 315.521 35.8996 318.163 Q39.4007 320.773 45.7664 320.773 Q52.1003 320.773 55.6014 318.163 Q59.1026 315.521 59.1026 310.81 Q59.1026 306.068 55.6014 303.458 Q52.1003 300.816 45.7664 300.816 M59.58 294.96 Q68.683 294.96 73.1071 299.002 Q77.5631 303.044 77.5631 311.383 Q77.5631 314.471 77.0857 317.208 Q76.6401 319.945 75.6852 322.523 L69.9879 322.523 Q71.3884 319.945 72.0568 317.431 Q72.7252 314.916 72.7252 312.306 Q72.7252 306.545 69.7015 303.681 Q66.7096 300.816 60.6303 300.816 L57.7339 300.816 Q60.885 302.63 62.4446 305.463 Q64.0042 308.296 64.0042 312.243 Q64.0042 318.799 59.0071 322.81 Q54.01 326.82 45.7664 326.82 Q37.491 326.82 32.4939 322.81 Q27.4968 318.799 27.4968 312.243 Q27.4968 308.296 29.0564 305.463 Q30.616 302.63 33.7671 300.816 L28.3562 300.816 L28.3562 294.96 L59.58 294.96 Z" fill="#000000" fill-rule="nonzero" fill-opacity="1" /><path clip-path="url(#clip800)" d="M16.4842 272.489 L16.4842 267.078 L70.0516 283.629 L70.0516 289.04 L16.4842 272.489 Z" fill="#000000" fill-rule="nonzero" fill-opacity="1" /><path clip-path="url(#clip800)" d="M35.1993 233.181 Q31.2526 230.984 29.3747 227.929 Q27.4968 224.873 27.4968 220.736 Q27.4968 215.166 31.4117 212.142 Q35.2948 209.118 42.4881 209.118 L64.0042 209.118 L64.0042 215.006 L42.679 215.006 Q37.5546 215.006 35.072 216.821 Q32.5894 218.635 32.5894 222.359 Q32.5894 226.91 35.6131 229.552 Q38.6368 232.194 43.8567 232.194 L64.0042 232.194 L64.0042 238.082 L42.679 238.082 Q37.5228 238.082 35.072 239.896 Q32.5894 241.711 32.5894 245.498 Q32.5894 249.986 35.6449 252.628 Q38.6686 255.27 43.8567 255.27 L64.0042 255.27 L64.0042 261.158 L28.3562 261.158 L28.3562 255.27 L33.8944 255.27 Q30.616 253.264 29.0564 250.463 Q27.4968 247.662 27.4968 243.811 Q27.4968 239.928 29.4702 237.223 Q31.4436 234.485 35.1993 233.181 Z" fill="#000000" fill-rule="nonzero" fill-opacity="1" /><path clip-path="url(#clip800)" d="M38.3822 177.13 Q39.3689 172.515 42.4881 169.937 Q45.6073 167.327 50.1906 167.327 Q57.2247 167.327 61.0759 172.165 Q64.9272 177.003 64.9272 185.915 Q64.9272 188.907 64.3224 192.09 Q63.7495 195.241 62.5719 198.615 L56.3653 198.615 Q57.9249 195.941 58.7206 192.758 Q59.5163 189.575 59.5163 186.106 Q59.5163 180.059 57.1292 176.908 Q54.7421 173.725 50.1906 173.725 Q45.9892 173.725 43.6339 176.685 Q41.2468 179.613 41.2468 184.865 L41.2468 190.403 L35.9632 190.403 L35.9632 184.61 Q35.9632 179.868 34.0853 177.353 Q32.1756 174.839 28.6108 174.839 Q24.9505 174.839 23.009 177.449 Q21.0356 180.027 21.0356 184.865 Q21.0356 187.507 21.6086 190.53 Q22.1815 193.554 23.3909 197.182 L17.6618 197.182 Q16.6433 193.522 16.134 190.339 Q15.6248 187.125 15.6248 184.292 Q15.6248 176.971 18.9668 172.706 Q22.277 168.441 27.9424 168.441 Q31.8892 168.441 34.6264 170.701 Q37.3318 172.961 38.3822 177.13 Z" fill="#000000" fill-rule="nonzero" fill-opacity="1" /><path clip-path="url(#clip800)" d="M14.479 142.278 L72.5979 142.278 L72.5979 155.774 L68.0464 155.774 L68.0464 148.167 L19.0304 148.167 L19.0304 155.774 L14.479 155.774 L14.479 142.278 Z" fill="#000000" fill-rule="nonzero" fill-opacity="1" /><polyline clip-path="url(#clip802)" style="stroke:#009af9; stroke-linecap:round; stroke-linejoin:round; stroke-width:12; stroke-opacity:1; fill:none" points="279.759,1384.24 300.088,1322.47 320.418,1260.85 340.747,1199.51 361.077,1138.58 381.406,1078.21 401.736,1018.53 422.065,959.687 442.395,901.801 462.724,845.008 483.054,789.436 503.383,735.212 523.712,682.458 544.042,631.294 564.371,581.835 584.701,534.195 605.03,488.479 625.36,444.793 645.689,403.236 666.019,363.9 686.348,326.876 706.678,292.247 727.007,260.092 747.337,230.483 767.666,203.488 787.996,179.168 808.325,157.578 828.655,138.766 848.984,122.776 869.314,109.643 889.643,99.398 909.973,92.0634 930.302,87.6559 950.632,86.1857 970.961,87.6559 991.291,92.0634 1011.62,99.398 1031.95,109.643 1052.28,122.776 1072.61,138.766 1092.94,157.578 1113.27,179.168 1133.6,203.488 1153.93,230.483 1174.26,260.092 1194.59,292.247 1214.91,326.876 1235.24,363.9 1255.57,403.236 1275.9,444.793 1296.23,488.479 1316.56,534.195 1336.89,581.835 1357.22,631.294 1377.55,682.458 1397.88,735.212 1418.21,789.436 1438.54,845.008 1458.87,901.801 1479.2,959.687 1499.53,1018.53 1519.86,1078.21 1540.19,1138.58 1560.52,1199.51 1580.85,1260.85 1601.17,1322.47 1621.5,1384.24 1641.83,1384.24 1662.16,1384.24 1682.49,1384.24 1702.82,1384.24 1723.15,1384.24 1743.48,1384.24 1763.81,1384.24 1784.14,1384.24 1804.47,1384.24 1824.8,1384.24 1845.13,1384.24 1865.46,1384.24 1885.79,1384.24 1906.12,1384.24 1926.45,1384.24 1946.78,1384.24 1967.11,1384.24 1987.44,1384.24 2007.76,1384.24 2028.09,1384.24 2048.42,1384.24 2068.75,1384.24 2089.08,1384.24 2109.41,1384.24 2129.74,1384.24 2150.07,1384.24 2170.4,1384.24 2190.73,1384.24 2211.06,1384.24 2231.39,1384.24 2251.72,1384.24 2272.05,1384.24 2292.38,1384.24 "/>
<path clip-path="url(#clip800)" d="M2015.88 196.789 L2281.64 196.789 L2281.64 93.1086 L2015.88 93.1086  Z" fill="#ffffff" fill-rule="evenodd" fill-opacity="1"/>
<polyline clip-path="url(#clip800)" style="stroke:#000000; stroke-linecap:round; stroke-linejoin:round; stroke-width:4; stroke-opacity:1; fill:none" points="2015.88,196.789 2281.64,196.789 2281.64,93.1086 2015.88,93.1086 2015.88,196.789 "/>
<polyline clip-path="url(#clip800)" style="stroke:#009af9; stroke-linecap:round; stroke-linejoin:round; stroke-width:12; stroke-opacity:1; fill:none" points="2039.58,144.949 2181.8,144.949 "/>
<path clip-path="url(#clip800)" d="M2219.35 164.636 Q2217.55 169.266 2215.83 170.678 Q2214.12 172.09 2211.25 172.09 L2207.85 172.09 L2207.85 168.525 L2210.35 168.525 Q2212.11 168.525 2213.08 167.692 Q2214.05 166.858 2215.23 163.756 L2215.99 161.812 L2205.51 136.303 L2210.02 136.303 L2218.12 156.581 L2226.23 136.303 L2230.74 136.303 L2219.35 164.636 Z" fill="#000000" fill-rule="nonzero" fill-opacity="1" /><path clip-path="url(#clip800)" d="M2238.03 158.293 L2245.67 158.293 L2245.67 131.928 L2237.36 133.595 L2237.36 129.335 L2245.62 127.669 L2250.3 127.669 L2250.3 158.293 L2257.94 158.293 L2257.94 162.229 L2238.03 162.229 L2238.03 158.293 Z" fill="#000000" fill-rule="nonzero" fill-opacity="1" /></svg>
