<?xml version="1.0" encoding="utf-8"?>
<svg xmlns="http://www.w3.org/2000/svg" xmlns:xlink="http://www.w3.org/1999/xlink" width="600" height="400" viewBox="0 0 2400 1600">
<defs>
  <clipPath id="clip870">
    <rect x="0" y="0" width="2400" height="1600"/>
  </clipPath>
</defs>
<path clip-path="url(#clip870)" d="M0 1600 L2400 1600 L2400 0 L0 0  Z" fill="#ffffff" fill-rule="evenodd" fill-opacity="1"/>
<defs>
  <clipPath id="clip871">
    <rect x="480" y="0" width="1681" height="1600"/>
  </clipPath>
</defs>
<path clip-path="url(#clip870)" d="M249.542 1423.18 L2352.76 1423.18 L2352.76 47.2441 L249.542 47.2441  Z" fill="#ffffff" fill-rule="evenodd" fill-opacity="1"/>
<defs>
  <clipPath id="clip872">
    <rect x="249" y="47" width="2104" height="1377"/>
  </clipPath>
</defs>
<polyline clip-path="url(#clip872)" style="stroke:#000000; stroke-linecap:round; stroke-linejoin:round; stroke-width:2; stroke-opacity:0.1; fill:none" points="309.067,1423.18 309.067,47.2441 "/>
<polyline clip-path="url(#clip872)" style="stroke:#000000; stroke-linecap:round; stroke-linejoin:round; stroke-width:2; stroke-opacity:0.1; fill:none" points="970.455,1423.18 970.455,47.2441 "/>
<polyline clip-path="url(#clip872)" style="stroke:#000000; stroke-linecap:round; stroke-linejoin:round; stroke-width:2; stroke-opacity:0.1; fill:none" points="1631.84,1423.18 1631.84,47.2441 "/>
<polyline clip-path="url(#clip872)" style="stroke:#000000; stroke-linecap:round; stroke-linejoin:round; stroke-width:2; stroke-opacity:0.1; fill:none" points="2293.23,1423.18 2293.23,47.2441 "/>
<polyline clip-path="url(#clip872)" style="stroke:#000000; stroke-linecap:round; stroke-linejoin:round; stroke-width:2; stroke-opacity:0.1; fill:none" points="249.542,1384.24 2352.76,1384.24 "/>
<polyline clip-path="url(#clip872)" style="stroke:#000000; stroke-linecap:round; stroke-linejoin:round; stroke-width:2; stroke-opacity:0.1; fill:none" points="249.542,1133.47 2352.76,1133.47 "/>
<polyline clip-path="url(#clip872)" style="stroke:#000000; stroke-linecap:round; stroke-linejoin:round; stroke-width:2; stroke-opacity:0.1; fill:none" points="249.542,882.709 2352.76,882.709 "/>
<polyline clip-path="url(#clip872)" style="stroke:#000000; stroke-linecap:round; stroke-linejoin:round; stroke-width:2; stroke-opacity:0.1; fill:none" points="249.542,631.945 2352.76,631.945 "/>
<polyline clip-path="url(#clip872)" style="stroke:#000000; stroke-linecap:round; stroke-linejoin:round; stroke-width:2; stroke-opacity:0.1; fill:none" points="249.542,381.18 2352.76,381.18 "/>
<polyline clip-path="url(#clip872)" style="stroke:#000000; stroke-linecap:round; stroke-linejoin:round; stroke-width:2; stroke-opacity:0.1; fill:none" points="249.542,130.416 2352.76,130.416 "/>
<polyline clip-path="url(#clip870)" style="stroke:#000000; stroke-linecap:round; stroke-linejoin:round; stroke-width:4; stroke-opacity:1; fill:none" points="249.542,1423.18 2352.76,1423.18 "/>
<polyline clip-path="url(#clip870)" style="stroke:#000000; stroke-linecap:round; stroke-linejoin:round; stroke-width:4; stroke-opacity:1; fill:none" points="309.067,1423.18 309.067,1404.28 "/>
<polyline clip-path="url(#clip870)" style="stroke:#000000; stroke-linecap:round; stroke-linejoin:round; stroke-width:4; stroke-opacity:1; fill:none" points="970.455,1423.18 970.455,1404.28 "/>
<polyline clip-path="url(#clip870)" style="stroke:#000000; stroke-linecap:round; stroke-linejoin:round; stroke-width:4; stroke-opacity:1; fill:none" points="1631.84,1423.18 1631.84,1404.28 "/>
<polyline clip-path="url(#clip870)" style="stroke:#000000; stroke-linecap:round; stroke-linejoin:round; stroke-width:4; stroke-opacity:1; fill:none" points="2293.23,1423.18 2293.23,1404.28 "/>
<path clip-path="url(#clip870)" d="M309.067 1454.1 Q305.456 1454.1 303.627 1457.66 Q301.822 1461.2 301.822 1468.33 Q301.822 1475.44 303.627 1479.01 Q305.456 1482.55 309.067 1482.55 Q312.701 1482.55 314.507 1479.01 Q316.335 1475.44 316.335 1468.33 Q316.335 1461.2 314.507 1457.66 Q312.701 1454.1 309.067 1454.1 M309.067 1450.39 Q314.877 1450.39 317.933 1455 Q321.011 1459.58 321.011 1468.33 Q321.011 1477.06 317.933 1481.67 Q314.877 1486.25 309.067 1486.25 Q303.257 1486.25 300.178 1481.67 Q297.123 1477.06 297.123 1468.33 Q297.123 1459.58 300.178 1455 Q303.257 1450.39 309.067 1450.39 Z" fill="#000000" fill-rule="nonzero" fill-opacity="1" /><path clip-path="url(#clip870)" d="M960.733 1451.02 L979.089 1451.02 L979.089 1454.96 L965.015 1454.96 L965.015 1463.43 Q966.034 1463.08 967.052 1462.92 Q968.071 1462.73 969.089 1462.73 Q974.876 1462.73 978.256 1465.9 Q981.635 1469.08 981.635 1474.49 Q981.635 1480.07 978.163 1483.17 Q974.691 1486.25 968.372 1486.25 Q966.196 1486.25 963.927 1485.88 Q961.682 1485.51 959.274 1484.77 L959.274 1480.07 Q961.358 1481.2 963.58 1481.76 Q965.802 1482.32 968.279 1482.32 Q972.284 1482.32 974.622 1480.21 Q976.96 1478.1 976.96 1474.49 Q976.96 1470.88 974.622 1468.77 Q972.284 1466.67 968.279 1466.67 Q966.404 1466.67 964.529 1467.08 Q962.677 1467.5 960.733 1468.38 L960.733 1451.02 Z" fill="#000000" fill-rule="nonzero" fill-opacity="1" /><path clip-path="url(#clip870)" d="M1606.53 1481.64 L1614.17 1481.64 L1614.17 1455.28 L1605.86 1456.95 L1605.86 1452.69 L1614.12 1451.02 L1618.8 1451.02 L1618.8 1481.64 L1626.44 1481.64 L1626.44 1485.58 L1606.53 1485.58 L1606.53 1481.64 Z" fill="#000000" fill-rule="nonzero" fill-opacity="1" /><path clip-path="url(#clip870)" d="M1645.88 1454.1 Q1642.27 1454.1 1640.44 1457.66 Q1638.64 1461.2 1638.64 1468.33 Q1638.64 1475.44 1640.44 1479.01 Q1642.27 1482.55 1645.88 1482.55 Q1649.52 1482.55 1651.32 1479.01 Q1653.15 1475.44 1653.15 1468.33 Q1653.15 1461.2 1651.32 1457.66 Q1649.52 1454.1 1645.88 1454.1 M1645.88 1450.39 Q1651.69 1450.39 1654.75 1455 Q1657.83 1459.58 1657.83 1468.33 Q1657.83 1477.06 1654.75 1481.67 Q1651.69 1486.25 1645.88 1486.25 Q1640.07 1486.25 1636.99 1481.67 Q1633.94 1477.06 1633.94 1468.33 Q1633.94 1459.58 1636.99 1455 Q1640.07 1450.39 1645.88 1450.39 Z" fill="#000000" fill-rule="nonzero" fill-opacity="1" /><path clip-path="url(#clip870)" d="M2268.42 1481.64 L2276.06 1481.64 L2276.06 1455.28 L2267.75 1456.95 L2267.75 1452.69 L2276.01 1451.02 L2280.68 1451.02 L2280.68 1481.64 L2288.32 1481.64 L2288.32 1485.58 L2268.42 1485.58 L2268.42 1481.64 Z" fill="#000000" fill-rule="nonzero" fill-opacity="1" /><path clip-path="url(#clip870)" d="M2297.81 1451.02 L2316.17 1451.02 L2316.17 1454.96 L2302.1 1454.96 L2302.1 1463.43 Q2303.12 1463.08 2304.13 1462.92 Q2305.15 1462.73 2306.17 1462.73 Q2311.96 1462.73 2315.34 1465.9 Q2318.72 1469.08 2318.72 1474.49 Q2318.72 1480.07 2315.24 1483.17 Q2311.77 1486.25 2305.45 1486.25 Q2303.28 1486.25 2301.01 1485.88 Q2298.76 1485.51 2296.36 1484.77 L2296.36 1480.07 Q2298.44 1481.2 2300.66 1481.76 Q2302.88 1482.32 2305.36 1482.32 Q2309.37 1482.32 2311.7 1480.21 Q2314.04 1478.1 2314.04 1474.49 Q2314.04 1470.88 2311.7 1468.77 Q2309.37 1466.67 2305.36 1466.67 Q2303.49 1466.67 2301.61 1467.08 Q2299.76 1467.5 2297.81 1468.38 L2297.81 1451.02 Z" fill="#000000" fill-rule="nonzero" fill-opacity="1" /><path clip-path="url(#clip870)" d="M1204.98 1522.27 L1204.98 1532.4 L1217.04 1532.4 L1217.04 1536.95 L1204.98 1536.95 L1204.98 1556.3 Q1204.98 1560.66 1206.16 1561.9 Q1207.37 1563.14 1211.03 1563.14 L1217.04 1563.14 L1217.04 1568.04 L1211.03 1568.04 Q1204.25 1568.04 1201.67 1565.53 Q1199.09 1562.98 1199.09 1556.3 L1199.09 1536.95 L1194.79 1536.95 L1194.79 1532.4 L1199.09 1532.4 L1199.09 1522.27 L1204.98 1522.27 Z" fill="#000000" fill-rule="nonzero" fill-opacity="1" /><path clip-path="url(#clip870)" d="M1244.92 1518.52 L1258.42 1518.52 L1258.42 1523.07 L1250.78 1523.07 L1250.78 1572.09 L1258.42 1572.09 L1258.42 1576.64 L1244.92 1576.64 L1244.92 1518.52 Z" fill="#000000" fill-rule="nonzero" fill-opacity="1" /><path clip-path="url(#clip870)" d="M1298.65 1539.24 Q1300.85 1535.29 1303.9 1533.41 Q1306.96 1531.54 1311.1 1531.54 Q1316.67 1531.54 1319.69 1535.45 Q1322.71 1539.33 1322.71 1546.53 L1322.71 1568.04 L1316.82 1568.04 L1316.82 1546.72 Q1316.82 1541.59 1315.01 1539.11 Q1313.2 1536.63 1309.47 1536.63 Q1304.92 1536.63 1302.28 1539.65 Q1299.64 1542.68 1299.64 1547.9 L1299.64 1568.04 L1293.75 1568.04 L1293.75 1546.72 Q1293.75 1541.56 1291.93 1539.11 Q1290.12 1536.63 1286.33 1536.63 Q1281.84 1536.63 1279.2 1539.68 Q1276.56 1542.71 1276.56 1547.9 L1276.56 1568.04 L1270.67 1568.04 L1270.67 1532.4 L1276.56 1532.4 L1276.56 1537.93 Q1278.57 1534.66 1281.37 1533.1 Q1284.17 1531.54 1288.02 1531.54 Q1291.9 1531.54 1294.61 1533.51 Q1297.35 1535.48 1298.65 1539.24 Z" fill="#000000" fill-rule="nonzero" fill-opacity="1" /><path clip-path="url(#clip870)" d="M1334.39 1532.4 L1340.25 1532.4 L1340.25 1568.04 L1334.39 1568.04 L1334.39 1532.4 M1334.39 1518.52 L1340.25 1518.52 L1340.25 1525.93 L1334.39 1525.93 L1334.39 1518.52 Z" fill="#000000" fill-rule="nonzero" fill-opacity="1" /><path clip-path="url(#clip870)" d="M1382.14 1546.53 L1382.14 1568.04 L1376.28 1568.04 L1376.28 1546.72 Q1376.28 1541.66 1374.31 1539.14 Q1372.33 1536.63 1368.39 1536.63 Q1363.64 1536.63 1360.91 1539.65 Q1358.17 1542.68 1358.17 1547.9 L1358.17 1568.04 L1352.28 1568.04 L1352.28 1532.4 L1358.17 1532.4 L1358.17 1537.93 Q1360.27 1534.72 1363.1 1533.13 Q1365.97 1531.54 1369.69 1531.54 Q1375.83 1531.54 1378.99 1535.36 Q1382.14 1539.14 1382.14 1546.53 Z" fill="#000000" fill-rule="nonzero" fill-opacity="1" /><path clip-path="url(#clip870)" d="M1407.5 1518.52 L1407.5 1576.64 L1394.01 1576.64 L1394.01 1572.09 L1401.62 1572.09 L1401.62 1523.07 L1394.01 1523.07 L1394.01 1518.52 L1407.5 1518.52 Z" fill="#000000" fill-rule="nonzero" fill-opacity="1" /><polyline clip-path="url(#clip870)" style="stroke:#000000; stroke-linecap:round; stroke-linejoin:round; stroke-width:4; stroke-opacity:1; fill:none" points="249.542,1423.18 249.542,47.2441 "/>
<polyline clip-path="url(#clip870)" style="stroke:#000000; stroke-linecap:round; stroke-linejoin:round; stroke-width:4; stroke-opacity:1; fill:none" points="249.542,1384.24 268.44,1384.24 "/>
<polyline clip-path="url(#clip870)" style="stroke:#000000; stroke-linecap:round; stroke-linejoin:round; stroke-width:4; stroke-opacity:1; fill:none" points="249.542,1133.47 268.44,1133.47 "/>
<polyline clip-path="url(#clip870)" style="stroke:#000000; stroke-linecap:round; stroke-linejoin:round; stroke-width:4; stroke-opacity:1; fill:none" points="249.542,882.709 268.44,882.709 "/>
<polyline clip-path="url(#clip870)" style="stroke:#000000; stroke-linecap:round; stroke-linejoin:round; stroke-width:4; stroke-opacity:1; fill:none" points="249.542,631.945 268.44,631.945 "/>
<polyline clip-path="url(#clip870)" style="stroke:#000000; stroke-linecap:round; stroke-linejoin:round; stroke-width:4; stroke-opacity:1; fill:none" points="249.542,381.18 268.44,381.18 "/>
<polyline clip-path="url(#clip870)" style="stroke:#000000; stroke-linecap:round; stroke-linejoin:round; stroke-width:4; stroke-opacity:1; fill:none" points="249.542,130.416 268.44,130.416 "/>
<path clip-path="url(#clip870)" d="M126.205 1370.04 Q122.593 1370.04 120.765 1373.6 Q118.959 1377.14 118.959 1384.27 Q118.959 1391.38 120.765 1394.94 Q122.593 1398.49 126.205 1398.49 Q129.839 1398.49 131.644 1394.94 Q133.473 1391.38 133.473 1384.27 Q133.473 1377.14 131.644 1373.6 Q129.839 1370.04 126.205 1370.04 M126.205 1366.33 Q132.015 1366.33 135.07 1370.94 Q138.149 1375.52 138.149 1384.27 Q138.149 1393 135.07 1397.61 Q132.015 1402.19 126.205 1402.19 Q120.394 1402.19 117.316 1397.61 Q114.26 1393 114.26 1384.27 Q114.26 1375.52 117.316 1370.94 Q120.394 1366.33 126.205 1366.33 Z" fill="#000000" fill-rule="nonzero" fill-opacity="1" /><path clip-path="url(#clip870)" d="M146.366 1395.64 L151.251 1395.64 L151.251 1401.52 L146.366 1401.52 L146.366 1395.64 Z" fill="#000000" fill-rule="nonzero" fill-opacity="1" /><path clip-path="url(#clip870)" d="M171.436 1370.04 Q167.825 1370.04 165.996 1373.6 Q164.19 1377.14 164.19 1384.27 Q164.19 1391.38 165.996 1394.94 Q167.825 1398.49 171.436 1398.49 Q175.07 1398.49 176.876 1394.94 Q178.704 1391.38 178.704 1384.27 Q178.704 1377.14 176.876 1373.6 Q175.07 1370.04 171.436 1370.04 M171.436 1366.33 Q177.246 1366.33 180.301 1370.94 Q183.38 1375.52 183.38 1384.27 Q183.38 1393 180.301 1397.61 Q177.246 1402.19 171.436 1402.19 Q165.626 1402.19 162.547 1397.61 Q159.491 1393 159.491 1384.27 Q159.491 1375.52 162.547 1370.94 Q165.626 1366.33 171.436 1366.33 Z" fill="#000000" fill-rule="nonzero" fill-opacity="1" /><path clip-path="url(#clip870)" d="M201.598 1370.04 Q197.987 1370.04 196.158 1373.6 Q194.352 1377.14 194.352 1384.27 Q194.352 1391.38 196.158 1394.94 Q197.987 1398.49 201.598 1398.49 Q205.232 1398.49 207.037 1394.94 Q208.866 1391.38 208.866 1384.27 Q208.866 1377.14 207.037 1373.6 Q205.232 1370.04 201.598 1370.04 M201.598 1366.33 Q207.408 1366.33 210.463 1370.94 Q213.542 1375.52 213.542 1384.27 Q213.542 1393 210.463 1397.61 Q207.408 1402.19 201.598 1402.19 Q195.787 1402.19 192.709 1397.61 Q189.653 1393 189.653 1384.27 Q189.653 1375.52 192.709 1370.94 Q195.787 1366.33 201.598 1366.33 Z" fill="#000000" fill-rule="nonzero" fill-opacity="1" /><path clip-path="url(#clip870)" d="M127.2 1119.27 Q123.589 1119.27 121.76 1122.84 Q119.955 1126.38 119.955 1133.51 Q119.955 1140.61 121.76 1144.18 Q123.589 1147.72 127.2 1147.72 Q130.834 1147.72 132.64 1144.18 Q134.468 1140.61 134.468 1133.51 Q134.468 1126.38 132.64 1122.84 Q130.834 1119.27 127.2 1119.27 M127.2 1115.57 Q133.01 1115.57 136.066 1120.18 Q139.144 1124.76 139.144 1133.51 Q139.144 1142.24 136.066 1146.84 Q133.01 1151.43 127.2 1151.43 Q121.39 1151.43 118.311 1146.84 Q115.256 1142.24 115.256 1133.51 Q115.256 1124.76 118.311 1120.18 Q121.39 1115.57 127.2 1115.57 Z" fill="#000000" fill-rule="nonzero" fill-opacity="1" /><path clip-path="url(#clip870)" d="M147.362 1144.87 L152.246 1144.87 L152.246 1150.75 L147.362 1150.75 L147.362 1144.87 Z" fill="#000000" fill-rule="nonzero" fill-opacity="1" /><path clip-path="url(#clip870)" d="M172.431 1119.27 Q168.82 1119.27 166.991 1122.84 Q165.186 1126.38 165.186 1133.51 Q165.186 1140.61 166.991 1144.18 Q168.82 1147.72 172.431 1147.72 Q176.065 1147.72 177.871 1144.18 Q179.7 1140.61 179.7 1133.51 Q179.7 1126.38 177.871 1122.84 Q176.065 1119.27 172.431 1119.27 M172.431 1115.57 Q178.241 1115.57 181.297 1120.18 Q184.376 1124.76 184.376 1133.51 Q184.376 1142.24 181.297 1146.84 Q178.241 1151.43 172.431 1151.43 Q166.621 1151.43 163.542 1146.84 Q160.487 1142.24 160.487 1133.51 Q160.487 1124.76 163.542 1120.18 Q166.621 1115.57 172.431 1115.57 Z" fill="#000000" fill-rule="nonzero" fill-opacity="1" /><path clip-path="url(#clip870)" d="M192.639 1116.19 L210.996 1116.19 L210.996 1120.13 L196.922 1120.13 L196.922 1128.6 Q197.94 1128.25 198.959 1128.09 Q199.977 1127.91 200.996 1127.91 Q206.783 1127.91 210.162 1131.08 Q213.542 1134.25 213.542 1139.67 Q213.542 1145.24 210.07 1148.35 Q206.598 1151.43 200.278 1151.43 Q198.102 1151.43 195.834 1151.05 Q193.588 1150.68 191.181 1149.94 L191.181 1145.24 Q193.264 1146.38 195.487 1146.93 Q197.709 1147.49 200.186 1147.49 Q204.19 1147.49 206.528 1145.38 Q208.866 1143.28 208.866 1139.67 Q208.866 1136.05 206.528 1133.95 Q204.19 1131.84 200.186 1131.84 Q198.311 1131.84 196.436 1132.26 Q194.584 1132.68 192.639 1133.55 L192.639 1116.19 Z" fill="#000000" fill-rule="nonzero" fill-opacity="1" /><path clip-path="url(#clip870)" d="M126.205 868.508 Q122.593 868.508 120.765 872.073 Q118.959 875.614 118.959 882.744 Q118.959 889.85 120.765 893.415 Q122.593 896.957 126.205 896.957 Q129.839 896.957 131.644 893.415 Q133.473 889.85 133.473 882.744 Q133.473 875.614 131.644 872.073 Q129.839 868.508 126.205 868.508 M126.205 864.804 Q132.015 864.804 135.07 869.411 Q138.149 873.994 138.149 882.744 Q138.149 891.471 135.07 896.077 Q132.015 900.661 126.205 900.661 Q120.394 900.661 117.316 896.077 Q114.26 891.471 114.26 882.744 Q114.26 873.994 117.316 869.411 Q120.394 864.804 126.205 864.804 Z" fill="#000000" fill-rule="nonzero" fill-opacity="1" /><path clip-path="url(#clip870)" d="M146.366 894.11 L151.251 894.11 L151.251 899.989 L146.366 899.989 L146.366 894.11 Z" fill="#000000" fill-rule="nonzero" fill-opacity="1" /><path clip-path="url(#clip870)" d="M162.246 896.054 L169.885 896.054 L169.885 869.688 L161.575 871.355 L161.575 867.096 L169.839 865.429 L174.514 865.429 L174.514 896.054 L182.153 896.054 L182.153 899.989 L162.246 899.989 L162.246 896.054 Z" fill="#000000" fill-rule="nonzero" fill-opacity="1" /><path clip-path="url(#clip870)" d="M201.598 868.508 Q197.987 868.508 196.158 872.073 Q194.352 875.614 194.352 882.744 Q194.352 889.85 196.158 893.415 Q197.987 896.957 201.598 896.957 Q205.232 896.957 207.037 893.415 Q208.866 889.85 208.866 882.744 Q208.866 875.614 207.037 872.073 Q205.232 868.508 201.598 868.508 M201.598 864.804 Q207.408 864.804 210.463 869.411 Q213.542 873.994 213.542 882.744 Q213.542 891.471 210.463 896.077 Q207.408 900.661 201.598 900.661 Q195.787 900.661 192.709 896.077 Q189.653 891.471 189.653 882.744 Q189.653 873.994 192.709 869.411 Q195.787 864.804 201.598 864.804 Z" fill="#000000" fill-rule="nonzero" fill-opacity="1" /><path clip-path="url(#clip870)" d="M127.2 617.743 Q123.589 617.743 121.76 621.308 Q119.955 624.85 119.955 631.979 Q119.955 639.086 121.76 642.651 Q123.589 646.192 127.2 646.192 Q130.834 646.192 132.64 642.651 Q134.468 639.086 134.468 631.979 Q134.468 624.85 132.64 621.308 Q130.834 617.743 127.2 617.743 M127.2 614.04 Q133.01 614.04 136.066 618.646 Q139.144 623.23 139.144 631.979 Q139.144 640.706 136.066 645.313 Q133.01 649.896 127.2 649.896 Q121.39 649.896 118.311 645.313 Q115.256 640.706 115.256 631.979 Q115.256 623.23 118.311 618.646 Q121.39 614.04 127.2 614.04 Z" fill="#000000" fill-rule="nonzero" fill-opacity="1" /><path clip-path="url(#clip870)" d="M147.362 643.345 L152.246 643.345 L152.246 649.225 L147.362 649.225 L147.362 643.345 Z" fill="#000000" fill-rule="nonzero" fill-opacity="1" /><path clip-path="url(#clip870)" d="M163.241 645.29 L170.88 645.29 L170.88 618.924 L162.57 620.591 L162.57 616.331 L170.834 614.665 L175.51 614.665 L175.51 645.29 L183.149 645.29 L183.149 649.225 L163.241 649.225 L163.241 645.29 Z" fill="#000000" fill-rule="nonzero" fill-opacity="1" /><path clip-path="url(#clip870)" d="M192.639 614.665 L210.996 614.665 L210.996 618.6 L196.922 618.6 L196.922 627.072 Q197.94 626.725 198.959 626.563 Q199.977 626.378 200.996 626.378 Q206.783 626.378 210.162 629.549 Q213.542 632.72 213.542 638.137 Q213.542 643.716 210.07 646.817 Q206.598 649.896 200.278 649.896 Q198.102 649.896 195.834 649.526 Q193.588 649.155 191.181 648.415 L191.181 643.716 Q193.264 644.85 195.487 645.405 Q197.709 645.961 200.186 645.961 Q204.19 645.961 206.528 643.854 Q208.866 641.748 208.866 638.137 Q208.866 634.526 206.528 632.419 Q204.19 630.313 200.186 630.313 Q198.311 630.313 196.436 630.729 Q194.584 631.146 192.639 632.026 L192.639 614.665 Z" fill="#000000" fill-rule="nonzero" fill-opacity="1" /><path clip-path="url(#clip870)" d="M126.205 366.979 Q122.593 366.979 120.765 370.544 Q118.959 374.085 118.959 381.215 Q118.959 388.321 120.765 391.886 Q122.593 395.428 126.205 395.428 Q129.839 395.428 131.644 391.886 Q133.473 388.321 133.473 381.215 Q133.473 374.085 131.644 370.544 Q129.839 366.979 126.205 366.979 M126.205 363.275 Q132.015 363.275 135.07 367.882 Q138.149 372.465 138.149 381.215 Q138.149 389.942 135.07 394.548 Q132.015 399.132 126.205 399.132 Q120.394 399.132 117.316 394.548 Q114.26 389.942 114.26 381.215 Q114.26 372.465 117.316 367.882 Q120.394 363.275 126.205 363.275 Z" fill="#000000" fill-rule="nonzero" fill-opacity="1" /><path clip-path="url(#clip870)" d="M146.366 392.581 L151.251 392.581 L151.251 398.46 L146.366 398.46 L146.366 392.581 Z" fill="#000000" fill-rule="nonzero" fill-opacity="1" /><path clip-path="url(#clip870)" d="M165.464 394.525 L181.783 394.525 L181.783 398.46 L159.839 398.46 L159.839 394.525 Q162.501 391.77 167.084 387.141 Q171.69 382.488 172.871 381.146 Q175.116 378.622 175.996 376.886 Q176.899 375.127 176.899 373.437 Q176.899 370.683 174.954 368.947 Q173.033 367.21 169.931 367.21 Q167.732 367.21 165.278 367.974 Q162.848 368.738 160.07 370.289 L160.07 365.567 Q162.894 364.433 165.348 363.854 Q167.802 363.275 169.839 363.275 Q175.209 363.275 178.403 365.96 Q181.598 368.646 181.598 373.136 Q181.598 375.266 180.788 377.187 Q180.001 379.085 177.894 381.678 Q177.315 382.349 174.214 385.567 Q171.112 388.761 165.464 394.525 Z" fill="#000000" fill-rule="nonzero" fill-opacity="1" /><path clip-path="url(#clip870)" d="M201.598 366.979 Q197.987 366.979 196.158 370.544 Q194.352 374.085 194.352 381.215 Q194.352 388.321 196.158 391.886 Q197.987 395.428 201.598 395.428 Q205.232 395.428 207.037 391.886 Q208.866 388.321 208.866 381.215 Q208.866 374.085 207.037 370.544 Q205.232 366.979 201.598 366.979 M201.598 363.275 Q207.408 363.275 210.463 367.882 Q213.542 372.465 213.542 381.215 Q213.542 389.942 210.463 394.548 Q207.408 399.132 201.598 399.132 Q195.787 399.132 192.709 394.548 Q189.653 389.942 189.653 381.215 Q189.653 372.465 192.709 367.882 Q195.787 363.275 201.598 363.275 Z" fill="#000000" fill-rule="nonzero" fill-opacity="1" /><path clip-path="url(#clip870)" d="M127.2 116.214 Q123.589 116.214 121.76 119.779 Q119.955 123.321 119.955 130.45 Q119.955 137.557 121.76 141.122 Q123.589 144.663 127.2 144.663 Q130.834 144.663 132.64 141.122 Q134.468 137.557 134.468 130.45 Q134.468 123.321 132.64 119.779 Q130.834 116.214 127.2 116.214 M127.2 112.511 Q133.01 112.511 136.066 117.117 Q139.144 121.701 139.144 130.45 Q139.144 139.177 136.066 143.784 Q133.01 148.367 127.2 148.367 Q121.39 148.367 118.311 143.784 Q115.256 139.177 115.256 130.45 Q115.256 121.701 118.311 117.117 Q121.39 112.511 127.2 112.511 Z" fill="#000000" fill-rule="nonzero" fill-opacity="1" /><path clip-path="url(#clip870)" d="M147.362 141.816 L152.246 141.816 L152.246 147.696 L147.362 147.696 L147.362 141.816 Z" fill="#000000" fill-rule="nonzero" fill-opacity="1" /><path clip-path="url(#clip870)" d="M166.459 143.761 L182.778 143.761 L182.778 147.696 L160.834 147.696 L160.834 143.761 Q163.496 141.006 168.079 136.376 Q172.686 131.724 173.866 130.381 Q176.112 127.858 176.991 126.122 Q177.894 124.363 177.894 122.673 Q177.894 119.918 175.95 118.182 Q174.028 116.446 170.927 116.446 Q168.727 116.446 166.274 117.21 Q163.843 117.974 161.065 119.525 L161.065 114.802 Q163.89 113.668 166.343 113.089 Q168.797 112.511 170.834 112.511 Q176.204 112.511 179.399 115.196 Q182.593 117.881 182.593 122.372 Q182.593 124.501 181.783 126.423 Q180.996 128.321 178.889 130.913 Q178.311 131.585 175.209 134.802 Q172.107 137.997 166.459 143.761 Z" fill="#000000" fill-rule="nonzero" fill-opacity="1" /><path clip-path="url(#clip870)" d="M192.639 113.136 L210.996 113.136 L210.996 117.071 L196.922 117.071 L196.922 125.543 Q197.94 125.196 198.959 125.034 Q199.977 124.849 200.996 124.849 Q206.783 124.849 210.162 128.02 Q213.542 131.191 213.542 136.608 Q213.542 142.187 210.07 145.288 Q206.598 148.367 200.278 148.367 Q198.102 148.367 195.834 147.997 Q193.588 147.626 191.181 146.886 L191.181 142.187 Q193.264 143.321 195.487 143.876 Q197.709 144.432 200.186 144.432 Q204.19 144.432 206.528 142.325 Q208.866 140.219 208.866 136.608 Q208.866 132.997 206.528 130.89 Q204.19 128.784 200.186 128.784 Q198.311 128.784 196.436 129.2 Q194.584 129.617 192.639 130.497 L192.639 113.136 Z" fill="#000000" fill-rule="nonzero" fill-opacity="1" /><path clip-path="url(#clip870)" d="M49.9359 1328.15 L28.3562 1328.15 L28.3562 1322.29 L49.7131 1322.29 Q54.7739 1322.29 57.3202 1320.32 Q59.8346 1318.34 59.8346 1314.4 Q59.8346 1309.65 56.8109 1306.92 Q53.7872 1304.15 48.5673 1304.15 L28.3562 1304.15 L28.3562 1298.29 L64.0042 1298.29 L64.0042 1304.15 L58.5296 1304.15 Q61.7762 1306.28 63.3676 1309.11 Q64.9272 1311.91 64.9272 1315.64 Q64.9272 1321.78 61.1078 1324.96 Q57.2883 1328.15 49.9359 1328.15 M27.4968 1313.41 L27.4968 1313.41 Z" fill="#000000" fill-rule="nonzero" fill-opacity="1" /><path clip-path="url(#clip870)" d="M58.657 1280.56 L77.5631 1280.56 L77.5631 1286.45 L28.3562 1286.45 L28.3562 1280.56 L33.7671 1280.56 Q30.5842 1278.72 29.0564 1275.92 Q27.4968 1273.08 27.4968 1269.17 Q27.4968 1262.67 32.6531 1258.63 Q37.8093 1254.56 46.212 1254.56 Q54.6147 1254.56 59.771 1258.63 Q64.9272 1262.67 64.9272 1269.17 Q64.9272 1273.08 63.3994 1275.92 Q61.8398 1278.72 58.657 1280.56 M46.212 1260.64 Q39.7508 1260.64 36.0905 1263.31 Q32.3984 1265.95 32.3984 1270.6 Q32.3984 1275.25 36.0905 1277.92 Q39.7508 1280.56 46.212 1280.56 Q52.6732 1280.56 56.3653 1277.92 Q60.0256 1275.25 60.0256 1270.6 Q60.0256 1265.95 56.3653 1263.31 Q52.6732 1260.64 46.212 1260.64 Z" fill="#000000" fill-rule="nonzero" fill-opacity="1" /><path clip-path="url(#clip870)" d="M33.7671 1221.39 L14.479 1221.39 L14.479 1215.54 L64.0042 1215.54 L64.0042 1221.39 L58.657 1221.39 Q61.8398 1223.24 63.3994 1226.07 Q64.9272 1228.87 64.9272 1232.82 Q64.9272 1239.28 59.771 1243.35 Q54.6147 1247.4 46.212 1247.4 Q37.8093 1247.4 32.6531 1243.35 Q27.4968 1239.28 27.4968 1232.82 Q27.4968 1228.87 29.0564 1226.07 Q30.5842 1223.24 33.7671 1221.39 M46.212 1241.35 Q52.6732 1241.35 56.3653 1238.71 Q60.0256 1236.03 60.0256 1231.39 Q60.0256 1226.74 56.3653 1224.07 Q52.6732 1221.39 46.212 1221.39 Q39.7508 1221.39 36.0905 1224.07 Q32.3984 1226.74 32.3984 1231.39 Q32.3984 1236.03 36.0905 1238.71 Q39.7508 1241.35 46.212 1241.35 Z" fill="#000000" fill-rule="nonzero" fill-opacity="1" /><path clip-path="url(#clip870)" d="M33.8307 1182.82 Q33.2578 1183.8 33.0032 1184.98 Q32.7167 1186.13 32.7167 1187.53 Q32.7167 1192.49 35.9632 1195.17 Q39.1779 1197.81 45.2253 1197.81 L64.0042 1197.81 L64.0042 1203.7 L28.3562 1203.7 L28.3562 1197.81 L33.8944 1197.81 Q30.6479 1195.96 29.0883 1193 Q27.4968 1190.04 27.4968 1185.81 Q27.4968 1185.2 27.5923 1184.47 Q27.656 1183.74 27.8151 1182.85 L33.8307 1182.82 Z" fill="#000000" fill-rule="nonzero" fill-opacity="1" /><path clip-path="url(#clip870)" d="M46.0847 1160.47 Q46.0847 1167.57 47.7079 1170.31 Q49.3312 1173.05 53.2461 1173.05 Q56.3653 1173.05 58.2114 1171.01 Q60.0256 1168.94 60.0256 1165.41 Q60.0256 1160.54 56.5881 1157.61 Q53.1188 1154.65 47.3897 1154.65 L46.0847 1154.65 L46.0847 1160.47 M43.6657 1148.79 L64.0042 1148.79 L64.0042 1154.65 L58.5933 1154.65 Q61.8398 1156.65 63.3994 1159.65 Q64.9272 1162.64 64.9272 1166.97 Q64.9272 1172.44 61.8716 1175.69 Q58.7843 1178.9 53.6281 1178.9 Q47.6125 1178.9 44.5569 1174.89 Q41.5014 1170.85 41.5014 1162.86 L41.5014 1154.65 L40.9285 1154.65 Q36.8862 1154.65 34.6901 1157.32 Q32.4621 1159.96 32.4621 1164.77 Q32.4621 1167.83 33.1941 1170.72 Q33.9262 1173.62 35.3903 1176.29 L29.9795 1176.29 Q28.7381 1173.08 28.1334 1170.05 Q27.4968 1167.03 27.4968 1164.17 Q27.4968 1156.43 31.5072 1152.61 Q35.5176 1148.79 43.6657 1148.79 Z" fill="#000000" fill-rule="nonzero" fill-opacity="1" /><path clip-path="url(#clip870)" d="M14.479 1118.68 L19.3487 1118.68 L19.3487 1124.28 Q19.3487 1127.43 20.6219 1128.68 Q21.895 1129.89 25.2052 1129.89 L28.3562 1129.89 L28.3562 1120.24 L32.9077 1120.24 L32.9077 1129.89 L64.0042 1129.89 L64.0042 1135.77 L32.9077 1135.77 L32.9077 1141.38 L28.3562 1141.38 L28.3562 1135.77 L25.8736 1135.77 Q19.9216 1135.77 17.2162 1133 Q14.479 1130.24 14.479 1124.22 L14.479 1118.68 Z" fill="#000000" fill-rule="nonzero" fill-opacity="1" /><path clip-path="url(#clip870)" d="M18.2347 1109.13 L28.3562 1109.13 L28.3562 1097.07 L32.9077 1097.07 L32.9077 1109.13 L52.2594 1109.13 Q56.6199 1109.13 57.8613 1107.96 Q59.1026 1106.75 59.1026 1103.09 L59.1026 1097.07 L64.0042 1097.07 L64.0042 1103.09 Q64.0042 1109.87 61.4897 1112.44 Q58.9434 1115.02 52.2594 1115.02 L32.9077 1115.02 L32.9077 1119.32 L28.3562 1119.32 L28.3562 1115.02 L18.2347 1115.02 L18.2347 1109.13 Z" fill="#000000" fill-rule="nonzero" fill-opacity="1" /><path clip-path="url(#clip870)" d="M35.1993 1040.89 Q31.2526 1038.7 29.3747 1035.64 Q27.4968 1032.59 27.4968 1028.45 Q27.4968 1022.88 31.4117 1019.85 Q35.2948 1016.83 42.4881 1016.83 L64.0042 1016.83 L64.0042 1022.72 L42.679 1022.72 Q37.5546 1022.72 35.072 1024.53 Q32.5894 1026.35 32.5894 1030.07 Q32.5894 1034.62 35.6131 1037.26 Q38.6368 1039.91 43.8567 1039.91 L64.0042 1039.91 L64.0042 1045.79 L42.679 1045.79 Q37.5228 1045.79 35.072 1047.61 Q32.5894 1049.42 32.5894 1053.21 Q32.5894 1057.7 35.6449 1060.34 Q38.6686 1062.98 43.8567 1062.98 L64.0042 1062.98 L64.0042 1068.87 L28.3562 1068.87 L28.3562 1062.98 L33.8944 1062.98 Q30.616 1060.98 29.0564 1058.18 Q27.4968 1055.38 27.4968 1051.52 Q27.4968 1047.64 29.4702 1044.94 Q31.4436 1042.2 35.1993 1040.89 Z" fill="#000000" fill-rule="nonzero" fill-opacity="1" /><path clip-path="url(#clip870)" d="M32.4621 991.336 Q32.4621 996.047 36.1542 998.784 Q39.8145 1001.52 46.212 1001.52 Q52.6095 1001.52 56.3017 998.816 Q59.9619 996.079 59.9619 991.336 Q59.9619 986.657 56.2698 983.92 Q52.5777 981.183 46.212 981.183 Q39.8781 981.183 36.186 983.92 Q32.4621 986.657 32.4621 991.336 M27.4968 991.336 Q27.4968 983.697 32.4621 979.337 Q37.4273 974.976 46.212 974.976 Q54.9649 974.976 59.9619 979.337 Q64.9272 983.697 64.9272 991.336 Q64.9272 999.007 59.9619 1003.37 Q54.9649 1007.7 46.212 1007.7 Q37.4273 1007.7 32.4621 1003.37 Q27.4968 999.007 27.4968 991.336 Z" fill="#000000" fill-rule="nonzero" fill-opacity="1" /><path clip-path="url(#clip870)" d="M35.1993 937.514 Q31.2526 935.318 29.3747 932.262 Q27.4968 929.207 27.4968 925.069 Q27.4968 919.499 31.4117 916.475 Q35.2948 913.452 42.4881 913.452 L64.0042 913.452 L64.0042 919.34 L42.679 919.34 Q37.5546 919.34 35.072 921.154 Q32.5894 922.968 32.5894 926.692 Q32.5894 931.244 35.6131 933.886 Q38.6368 936.527 43.8567 936.527 L64.0042 936.527 L64.0042 942.416 L42.679 942.416 Q37.5228 942.416 35.072 944.23 Q32.5894 946.044 32.5894 949.832 Q32.5894 954.32 35.6449 956.961 Q38.6686 959.603 43.8567 959.603 L64.0042 959.603 L64.0042 965.491 L28.3562 965.491 L28.3562 959.603 L33.8944 959.603 Q30.616 957.598 29.0564 954.797 Q27.4968 951.996 27.4968 948.145 Q27.4968 944.262 29.4702 941.556 Q31.4436 938.819 35.1993 937.514 Z" fill="#000000" fill-rule="nonzero" fill-opacity="1" /><path clip-path="url(#clip870)" d="M44.7161 871.279 L47.5806 871.279 L47.5806 898.206 Q53.6281 897.824 56.8109 894.577 Q59.9619 891.299 59.9619 885.474 Q59.9619 882.101 59.1344 878.95 Q58.3069 875.767 56.6518 872.648 L62.1899 872.648 Q63.5267 875.799 64.227 879.109 Q64.9272 882.419 64.9272 885.825 Q64.9272 894.355 59.9619 899.352 Q54.9967 904.317 46.5303 904.317 Q37.7774 904.317 32.6531 899.606 Q27.4968 894.864 27.4968 886.843 Q27.4968 879.65 32.1438 875.48 Q36.7589 871.279 44.7161 871.279 M42.9973 877.135 Q38.1912 877.199 35.3266 879.841 Q32.4621 882.451 32.4621 886.779 Q32.4621 891.681 35.2312 894.641 Q38.0002 897.569 43.0292 898.015 L42.9973 877.135 Z" fill="#000000" fill-rule="nonzero" fill-opacity="1" /><path clip-path="url(#clip870)" d="M42.4881 832.034 L64.0042 832.034 L64.0042 837.891 L42.679 837.891 Q37.6183 837.891 35.1038 839.864 Q32.5894 841.838 32.5894 845.784 Q32.5894 850.527 35.6131 853.264 Q38.6368 856.001 43.8567 856.001 L64.0042 856.001 L64.0042 861.89 L28.3562 861.89 L28.3562 856.001 L33.8944 856.001 Q30.6797 853.901 29.0883 851.068 Q27.4968 848.203 27.4968 844.479 Q27.4968 838.336 31.3163 835.185 Q35.1038 832.034 42.4881 832.034 Z" fill="#000000" fill-rule="nonzero" fill-opacity="1" /><path clip-path="url(#clip870)" d="M18.2347 814.561 L28.3562 814.561 L28.3562 802.497 L32.9077 802.497 L32.9077 814.561 L52.2594 814.561 Q56.6199 814.561 57.8613 813.383 Q59.1026 812.173 59.1026 808.513 L59.1026 802.497 L64.0042 802.497 L64.0042 808.513 Q64.0042 815.293 61.4897 817.871 Q58.9434 820.449 52.2594 820.449 L32.9077 820.449 L32.9077 824.746 L28.3562 824.746 L28.3562 820.449 L18.2347 820.449 L18.2347 814.561 Z" fill="#000000" fill-rule="nonzero" fill-opacity="1" /><path clip-path="url(#clip870)" d="M49.9359 795.4 L28.3562 795.4 L28.3562 789.543 L49.7131 789.543 Q54.7739 789.543 57.3202 787.57 Q59.8346 785.597 59.8346 781.65 Q59.8346 776.907 56.8109 774.17 Q53.7872 771.401 48.5673 771.401 L28.3562 771.401 L28.3562 765.545 L64.0042 765.545 L64.0042 771.401 L58.5296 771.401 Q61.7762 773.534 63.3676 776.366 Q64.9272 779.167 64.9272 782.891 Q64.9272 789.034 61.1078 792.217 Q57.2883 795.4 49.9359 795.4 M27.4968 780.663 L27.4968 780.663 Z" fill="#000000" fill-rule="nonzero" fill-opacity="1" /><path clip-path="url(#clip870)" d="M35.1993 725.727 Q31.2526 723.531 29.3747 720.475 Q27.4968 717.42 27.4968 713.282 Q27.4968 707.712 31.4117 704.688 Q35.2948 701.665 42.4881 701.665 L64.0042 701.665 L64.0042 707.553 L42.679 707.553 Q37.5546 707.553 35.072 709.367 Q32.5894 711.181 32.5894 714.905 Q32.5894 719.457 35.6131 722.099 Q38.6368 724.74 43.8567 724.74 L64.0042 724.74 L64.0042 730.629 L42.679 730.629 Q37.5228 730.629 35.072 732.443 Q32.5894 734.257 32.5894 738.045 Q32.5894 742.533 35.6449 745.174 Q38.6686 747.816 43.8567 747.816 L64.0042 747.816 L64.0042 753.704 L28.3562 753.704 L28.3562 747.816 L33.8944 747.816 Q30.616 745.811 29.0564 743.01 Q27.4968 740.209 27.4968 736.358 Q27.4968 732.475 29.4702 729.769 Q31.4436 727.032 35.1993 725.727 Z" fill="#000000" fill-rule="nonzero" fill-opacity="1" /><path clip-path="url(#clip870)" d="M14.479 651.216 L19.3487 651.216 L19.3487 656.818 Q19.3487 659.969 20.6219 661.211 Q21.895 662.42 25.2052 662.42 L28.3562 662.42 L28.3562 652.776 L32.9077 652.776 L32.9077 662.42 L64.0042 662.42 L64.0042 668.308 L32.9077 668.308 L32.9077 673.91 L28.3562 673.91 L28.3562 668.308 L25.8736 668.308 Q19.9216 668.308 17.2162 665.539 Q14.479 662.77 14.479 656.755 L14.479 651.216 Z" fill="#000000" fill-rule="nonzero" fill-opacity="1" /><path clip-path="url(#clip870)" d="M14.479 646.315 L14.479 640.458 L64.0042 640.458 L64.0042 646.315 L14.479 646.315 Z" fill="#000000" fill-rule="nonzero" fill-opacity="1" /><path clip-path="url(#clip870)" d="M49.9359 628.809 L28.3562 628.809 L28.3562 622.953 L49.7131 622.953 Q54.7739 622.953 57.3202 620.979 Q59.8346 619.006 59.8346 615.059 Q59.8346 610.317 56.8109 607.58 Q53.7872 604.81 48.5673 604.81 L28.3562 604.81 L28.3562 598.954 L64.0042 598.954 L64.0042 604.81 L58.5296 604.81 Q61.7762 606.943 63.3676 609.776 Q64.9272 612.577 64.9272 616.301 Q64.9272 622.443 61.1078 625.626 Q57.2883 628.809 49.9359 628.809 M27.4968 614.073 L27.4968 614.073 Z" fill="#000000" fill-rule="nonzero" fill-opacity="1" /><path clip-path="url(#clip870)" d="M28.3562 557.259 L45.7028 570.149 L64.0042 556.59 L64.0042 563.497 L49.9996 573.873 L64.0042 584.249 L64.0042 591.156 L45.3526 577.311 L28.3562 589.978 L28.3562 583.072 L41.0558 573.619 L28.3562 564.165 L28.3562 557.259 Z" fill="#000000" fill-rule="nonzero" fill-opacity="1" /><path clip-path="url(#clip870)" d="M14.479 528.136 L14.479 514.64 L19.0304 514.64 L19.0304 522.279 L68.0464 522.279 L68.0464 514.64 L72.5979 514.64 L72.5979 528.136 L14.479 528.136 Z" fill="#000000" fill-rule="nonzero" fill-opacity="1" /><path clip-path="url(#clip870)" d="M35.1993 474.409 Q31.2526 472.213 29.3747 469.157 Q27.4968 466.102 27.4968 461.964 Q27.4968 456.394 31.4117 453.37 Q35.2948 450.347 42.4881 450.347 L64.0042 450.347 L64.0042 456.235 L42.679 456.235 Q37.5546 456.235 35.072 458.049 Q32.5894 459.863 32.5894 463.587 Q32.5894 468.139 35.6131 470.781 Q38.6368 473.422 43.8567 473.422 L64.0042 473.422 L64.0042 479.311 L42.679 479.311 Q37.5228 479.311 35.072 481.125 Q32.5894 482.939 32.5894 486.727 Q32.5894 491.214 35.6449 493.856 Q38.6686 496.498 43.8567 496.498 L64.0042 496.498 L64.0042 502.386 L28.3562 502.386 L28.3562 496.498 L33.8944 496.498 Q30.616 494.493 29.0564 491.692 Q27.4968 488.891 27.4968 485.04 Q27.4968 481.157 29.4702 478.451 Q31.4436 475.714 35.1993 474.409 Z" fill="#000000" fill-rule="nonzero" fill-opacity="1" /><path clip-path="url(#clip870)" d="M16.4842 428.258 L16.4842 422.847 L70.0516 439.398 L70.0516 444.808 L16.4842 428.258 Z" fill="#000000" fill-rule="nonzero" fill-opacity="1" /><path clip-path="url(#clip870)" d="M29.4065 393.978 L34.9447 393.978 Q33.6716 396.461 33.035 399.134 Q32.3984 401.808 32.3984 404.673 Q32.3984 409.033 33.7352 411.229 Q35.072 413.394 37.7456 413.394 Q39.7826 413.394 40.9603 411.834 Q42.1061 410.274 43.1565 405.564 L43.6021 403.559 Q44.9389 397.32 47.3897 394.71 Q49.8086 392.069 54.1691 392.069 Q59.1344 392.069 62.0308 396.015 Q64.9272 399.93 64.9272 406.805 Q64.9272 409.67 64.3543 412.789 Q63.8132 415.876 62.6992 419.314 L56.6518 419.314 Q58.3387 416.067 59.198 412.916 Q60.0256 409.765 60.0256 406.678 Q60.0256 402.54 58.6251 400.312 Q57.1929 398.084 54.6147 398.084 Q52.2276 398.084 50.9545 399.707 Q49.6813 401.299 48.5037 406.742 L48.0262 408.779 Q46.8804 414.221 44.5251 416.64 Q42.138 419.059 38.0002 419.059 Q32.9713 419.059 30.2341 415.494 Q27.4968 411.93 27.4968 405.373 Q27.4968 402.126 27.9743 399.262 Q28.4517 396.397 29.4065 393.978 Z" fill="#000000" fill-rule="nonzero" fill-opacity="1" /><path clip-path="url(#clip870)" d="M14.479 362.245 L14.479 356.357 L43.7294 356.357 L28.3562 338.883 L28.3562 331.403 L45.0344 350.31 L64.0042 330.608 L64.0042 338.247 L46.5939 356.357 L64.0042 356.357 L64.0042 362.245 L14.479 362.245 Z" fill="#000000" fill-rule="nonzero" fill-opacity="1" /><path clip-path="url(#clip870)" d="M45.7664 300.816 Q39.4007 300.816 35.8996 303.458 Q32.3984 306.068 32.3984 310.81 Q32.3984 315.521 35.8996 318.163 Q39.4007 320.773 45.7664 320.773 Q52.1003 320.773 55.6014 318.163 Q59.1026 315.521 59.1026 310.81 Q59.1026 306.068 55.6014 303.458 Q52.1003 300.816 45.7664 300.816 M59.58 294.96 Q68.683 294.96 73.1071 299.002 Q77.5631 303.044 77.5631 311.383 Q77.5631 314.471 77.0857 317.208 Q76.6401 319.945 75.6852 322.523 L69.9879 322.523 Q71.3884 319.945 72.0568 317.431 Q72.7252 314.916 72.7252 312.306 Q72.7252 306.545 69.7015 303.681 Q66.7096 300.816 60.6303 300.816 L57.7339 300.816 Q60.885 302.63 62.4446 305.463 Q64.0042 308.296 64.0042 312.243 Q64.0042 318.799 59.0071 322.81 Q54.01 326.82 45.7664 326.82 Q37.491 326.82 32.4939 322.81 Q27.4968 318.799 27.4968 312.243 Q27.4968 308.296 29.0564 305.463 Q30.616 302.63 33.7671 300.816 L28.3562 300.816 L28.3562 294.96 L59.58 294.96 Z" fill="#000000" fill-rule="nonzero" fill-opacity="1" /><path clip-path="url(#clip870)" d="M16.4842 272.489 L16.4842 267.078 L70.0516 283.629 L70.0516 289.04 L16.4842 272.489 Z" fill="#000000" fill-rule="nonzero" fill-opacity="1" /><path clip-path="url(#clip870)" d="M35.1993 233.181 Q31.2526 230.984 29.3747 227.929 Q27.4968 224.873 27.4968 220.736 Q27.4968 215.166 31.4117 212.142 Q35.2948 209.118 42.4881 209.118 L64.0042 209.118 L64.0042 215.006 L42.679 215.006 Q37.5546 215.006 35.072 216.821 Q32.5894 218.635 32.5894 222.359 Q32.5894 226.91 35.6131 229.552 Q38.6368 232.194 43.8567 232.194 L64.0042 232.194 L64.0042 238.082 L42.679 238.082 Q37.5228 238.082 35.072 239.896 Q32.5894 241.711 32.5894 245.498 Q32.5894 249.986 35.6449 252.628 Q38.6686 255.27 43.8567 255.27 L64.0042 255.27 L64.0042 261.158 L28.3562 261.158 L28.3562 255.27 L33.8944 255.27 Q30.616 253.264 29.0564 250.463 Q27.4968 247.662 27.4968 243.811 Q27.4968 239.928 29.4702 237.223 Q31.4436 234.485 35.1993 233.181 Z" fill="#000000" fill-rule="nonzero" fill-opacity="1" /><path clip-path="url(#clip870)" d="M38.3822 177.13 Q39.3689 172.515 42.4881 169.937 Q45.6073 167.327 50.1906 167.327 Q57.2247 167.327 61.0759 172.165 Q64.9272 177.003 64.9272 185.915 Q64.9272 188.907 64.3224 192.09 Q63.7495 195.241 62.5719 198.615 L56.3653 198.615 Q57.9249 195.941 58.7206 192.758 Q59.5163 189.575 59.5163 186.106 Q59.5163 180.059 57.1292 176.908 Q54.7421 173.725 50.1906 173.725 Q45.9892 173.725 43.6339 176.685 Q41.2468 179.613 41.2468 184.865 L41.2468 190.403 L35.9632 190.403 L35.9632 184.61 Q35.9632 179.868 34.0853 177.353 Q32.1756 174.839 28.6108 174.839 Q24.9505 174.839 23.009 177.449 Q21.0356 180.027 21.0356 184.865 Q21.0356 187.507 21.6086 190.53 Q22.1815 193.554 23.3909 197.182 L17.6618 197.182 Q16.6433 193.522 16.134 190.339 Q15.6248 187.125 15.6248 184.292 Q15.6248 176.971 18.9668 172.706 Q22.277 168.441 27.9424 168.441 Q31.8892 168.441 34.6264 170.701 Q37.3318 172.961 38.3822 177.13 Z" fill="#000000" fill-rule="nonzero" fill-opacity="1" /><path clip-path="url(#clip870)" d="M14.479 142.278 L72.5979 142.278 L72.5979 155.774 L68.0464 155.774 L68.0464 148.167 L19.0304 148.167 L19.0304 155.774 L14.479 155.774 L14.479 142.278 Z" fill="#000000" fill-rule="nonzero" fill-opacity="1" /><polyline clip-path="url(#clip872)" style="stroke:#009af9; stroke-linecap:round; stroke-linejoin:round; stroke-width:12; stroke-opacity:1; fill:none" points="309.067,1384.24 329.109,1384.24 349.151,1384.24 369.193,1384.24 389.235,1384.24 409.277,1384.24 429.319,1384.24 449.361,1384.24 469.403,1384.24 489.446,1384.24 509.488,1384.24 529.53,1384.24 549.572,1384.24 569.614,1384.24 589.656,1384.24 609.698,1384.24 629.74,1384.24 649.782,1384.24 669.824,1384.24 689.866,1384.24 709.908,1384.24 729.95,1384.24 749.992,1384.24 770.034,1384.24 790.076,1384.24 810.118,1384.24 830.161,1384.24 850.203,1384.24 870.245,1384.24 890.287,1384.24 910.329,1384.24 930.371,1384.24 950.413,1384.24 970.455,1384.24 990.497,1384.24 1010.54,1384.24 1030.58,1384.24 1050.62,1384.24 1070.67,1384.24 1090.71,1384.24 1110.75,1384.24 1130.79,1384.24 1150.83,1384.24 1170.88,1384.24 1190.92,1384.24 1210.96,1384.24 1231,1384.24 1251.04,1384.24 1271.09,1384.24 1291.13,1384.24 1311.17,1384.24 1331.21,1384.24 1351.25,1384.24 1371.3,1384.24 1391.34,1384.24 1411.38,1384.24 1431.42,1384.24 1451.46,1384.24 1471.51,1384.24 1491.55,1384.24 1511.59,1384.24 1531.63,1384.24 1551.67,1384.24 1571.72,1384.24 1591.76,1384.24 1611.8,1384.24 1631.84,1384.24 1651.89,500.284 1671.93,487.232 1691.97,474.187 1712.01,461.147 1732.05,448.115 1752.1,435.088 1772.14,422.069 1792.18,409.056 1812.22,396.05 1832.26,383.051 1852.31,370.058 1872.35,357.073 1892.39,344.096 1912.43,331.125 1932.47,318.162 1952.52,305.206 1972.56,292.258 1992.6,279.317 2012.64,266.384 2032.68,253.459 2052.73,240.542 2072.77,227.633 2092.81,214.732 2112.85,201.839 2132.89,188.954 2152.94,176.078 2172.98,163.21 2193.02,150.351 2213.06,137.5 2233.1,124.658 2253.15,111.825 2273.19,99.0009 2293.23,86.1857 "/>
<path clip-path="url(#clip870)" d="M319.649 196.789 L582.401 196.789 L582.401 93.1086 L319.649 93.1086  Z" fill="#ffffff" fill-rule="evenodd" fill-opacity="1"/>
<polyline clip-path="url(#clip870)" style="stroke:#000000; stroke-linecap:round; stroke-linejoin:round; stroke-width:4; stroke-opacity:1; fill:none" points="319.649,196.789 582.401,196.789 582.401,93.1086 319.649,93.1086 319.649,196.789 "/>
<polyline clip-path="url(#clip870)" style="stroke:#009af9; stroke-linecap:round; stroke-linejoin:round; stroke-width:12; stroke-opacity:1; fill:none" points="343.018,144.949 483.232,144.949 "/>
<path clip-path="url(#clip870)" d="M520.444 164.636 Q518.638 169.266 516.926 170.678 Q515.213 172.09 512.342 172.09 L508.939 172.09 L508.939 168.525 L511.439 168.525 Q513.199 168.525 514.171 167.692 Q515.143 166.858 516.324 163.756 L517.088 161.812 L506.602 136.303 L511.115 136.303 L519.217 156.581 L527.319 136.303 L531.833 136.303 L520.444 164.636 Z" fill="#000000" fill-rule="nonzero" fill-opacity="1" /><path clip-path="url(#clip870)" d="M539.124 158.293 L546.763 158.293 L546.763 131.928 L538.453 133.595 L538.453 129.335 L546.717 127.669 L551.393 127.669 L551.393 158.293 L559.032 158.293 L559.032 162.229 L539.124 162.229 L539.124 158.293 Z" fill="#000000" fill-rule="nonzero" fill-opacity="1" /></svg>
